<?xml version="1.0" encoding="UTF-8"?>
<svg xmlns="http://www.w3.org/2000/svg" viewBox="0 0 900 600" role="img" aria-label="Ulke haritasi">
  <defs>
    <linearGradient id="paper" x1="0" y1="0" x2="1" y2="1">
      <stop offset="0%" stop-color="#fffdf8"/>
      <stop offset="100%" stop-color="#fff3d2"/>
    </linearGradient>
    <filter id="mapShadow" x="-10%" y="-10%" width="120%" height="120%">
      <feDropShadow dx="0" dy="12" stdDeviation="14" flood-color="#b58f42" flood-opacity="0.16"/>
    </filter>
  </defs>
  <rect x="22" y="22" width="856" height="556" rx="34" fill="url(#paper)" stroke="#e3d0a7" stroke-width="2"/>
  <g filter="url(#mapShadow)">
    <path d="M 190.57 486.90 L 189.52 488.10 L 187.74 487.07 L 187.94 485.07 L 186.75 482.46 L 187.11 481.66 L 188.36 480.49 L 187.86 479.08 L 188.28 478.41 L 188.82 478.54 L 191.57 479.75 L 192.84 480.38 L 194.01 481.34 L 195.84 483.85 L 195.66 484.25 L 192.86 485.78 L 190.57 486.90 Z M 186.71 475.71 L 184.31 476.22 L 183.07 474.71 L 182.25 474.13 L 182.18 473.68 L 182.89 473.06 L 185.44 473.75 L 187.31 474.85 L 186.71 475.71 Z M 181.84 471.88 L 181.62 472.66 L 177.77 472.45 L 178.31 471.58 L 181.84 471.88 Z M 175.42 470.84 L 175.04 471.26 L 174.52 471.16 L 172.03 470.91 L 171.11 469.28 L 170.83 469.00 L 172.75 468.01 L 173.35 468.47 L 175.42 470.84 Z M 163.28 466.11 L 162.43 466.82 L 160.02 465.51 L 160.39 464.99 L 161.48 464.28 L 163.14 464.44 L 163.28 466.11 Z M 626.19 269.50 L 627.46 273.44 L 629.69 274.65 L 634.70 275.09 L 642.03 276.23 L 648.98 278.46 L 654.80 277.52 L 663.62 279.39 L 665.97 279.32 L 672.38 277.29 L 679.12 279.89 L 686.13 282.67 L 691.94 285.06 L 697.51 287.35 L 698.20 289.24 L 699.89 289.94 L 699.45 290.66 L 701.38 290.88 L 702.77 290.13 L 703.13 291.83 L 704.58 292.97 L 706.55 292.97 L 707.60 293.85 L 706.71 295.12 L 714.19 298.49 L 715.72 305.00 L 717.15 311.23 L 715.06 315.47 L 711.68 319.42 L 710.11 321.93 L 709.95 322.68 L 710.75 323.70 L 713.19 324.83 L 714.99 324.83 L 723.32 321.00 L 730.71 319.88 L 740.10 316.31 L 740.24 315.58 L 739.59 313.39 L 738.43 311.98 L 741.67 310.85 L 748.72 310.82 L 755.30 310.82 L 757.60 308.02 L 758.49 307.47 L 766.07 302.30 L 769.31 300.98 L 780.21 300.93 L 793.43 300.92 L 794.15 299.15 L 796.44 298.79 L 799.49 297.68 L 802.04 294.42 L 804.23 288.84 L 809.70 283.42 L 812.08 285.31 L 816.89 284.09 L 820.08 286.16 L 820.07 295.94 L 824.76 300.00 L 826.00 302.35 L 818.34 305.82 L 810.97 308.30 L 803.39 310.42 L 799.59 314.68 L 798.38 316.30 L 798.31 320.10 L 800.67 323.90 L 803.65 324.08 L 802.90 321.46 L 805.05 323.06 L 804.48 325.11 L 799.63 326.27 L 796.19 326.13 L 790.88 327.38 L 787.76 327.74 L 783.59 328.09 L 777.61 330.17 L 788.15 328.82 L 790.27 330.18 L 780.23 332.33 L 775.66 332.35 L 775.87 331.47 L 773.69 333.45 L 775.80 333.78 L 774.25 338.94 L 769.03 344.46 L 768.50 342.62 L 766.92 342.24 L 764.57 340.45 L 766.06 344.31 L 767.84 345.59 L 767.95 348.30 L 765.65 351.09 L 761.61 356.82 L 760.96 356.53 L 763.18 351.65 L 759.51 348.91 L 758.67 342.95 L 757.29 346.05 L 758.82 350.60 L 754.08 349.48 L 759.02 351.79 L 759.33 358.61 L 761.38 359.11 L 762.13 361.59 L 763.14 368.77 L 758.58 374.09 L 751.16 376.22 L 746.44 380.43 L 742.86 380.89 L 739.23 383.52 L 738.20 385.93 L 730.33 390.59 L 726.28 394.00 L 722.90 398.26 L 721.80 403.35 L 723.06 408.33 L 725.46 414.47 L 728.65 419.55 L 728.69 422.65 L 732.08 430.97 L 731.86 435.81 L 731.54 438.60 L 729.75 442.98 L 727.61 443.88 L 724.08 443.01 L 722.95 439.87 L 720.22 438.22 L 716.42 432.05 L 713.08 426.56 L 712.00 423.75 L 713.48 418.99 L 711.47 415.05 L 705.88 409.04 L 703.08 407.94 L 695.84 411.20 L 694.55 410.84 L 691.07 407.49 L 686.58 405.72 L 678.47 406.62 L 672.10 405.83 L 666.63 406.32 L 663.66 407.44 L 664.96 409.35 L 664.84 412.26 L 666.36 413.67 L 665.00 414.62 L 662.33 413.56 L 659.64 414.92 L 654.44 414.70 L 649.08 410.91 L 642.82 411.80 L 637.60 410.14 L 633.14 410.64 L 627.11 412.32 L 620.58 417.64 L 613.45 420.73 L 609.53 424.16 L 607.88 427.38 L 607.81 432.33 L 608.17 435.78 L 609.53 438.22 L 606.73 438.43 L 601.64 436.85 L 596.04 434.63 L 594.03 431.26 L 592.46 426.24 L 588.22 422.15 L 585.74 417.94 L 582.14 413.03 L 577.09 410.17 L 571.22 410.31 L 566.70 415.98 L 560.75 413.83 L 557.04 411.66 L 555.25 407.72 L 552.88 403.97 L 548.61 400.81 L 544.94 398.55 L 542.33 396.00 L 529.90 396.00 L 529.89 398.96 L 524.20 398.96 L 509.93 399.01 L 493.57 393.96 L 482.73 390.47 L 483.40 389.07 L 474.29 389.85 L 466.14 390.40 L 464.94 386.74 L 460.29 382.61 L 456.94 381.75 L 456.16 379.69 L 452.13 379.33 L 449.56 377.39 L 442.90 376.69 L 441.07 375.53 L 440.20 371.59 L 433.24 364.39 L 427.26 354.41 L 427.52 352.75 L 424.35 350.38 L 418.80 344.37 L 417.81 338.52 L 413.99 334.60 L 415.56 328.66 L 415.31 322.51 L 413.02 317.01 L 415.82 310.25 L 416.69 303.74 L 417.57 297.23 L 416.27 287.61 L 414.00 281.47 L 411.91 278.14 L 412.78 276.74 L 423.15 279.17 L 426.98 285.95 L 428.75 284.05 L 427.60 278.17 L 425.16 272.29 L 445.54 272.29 L 466.83 272.29 L 473.89 272.29 L 495.75 272.29 L 516.92 272.29 L 538.44 272.29 L 559.97 272.29 L 584.35 272.29 L 608.89 272.28 L 623.74 272.29 L 623.76 269.53 L 626.19 269.50 Z M 208.76 214.07 L 201.59 216.80 L 197.92 214.95 L 196.82 211.59 L 203.33 209.04 L 207.16 207.95 L 211.93 208.43 L 214.96 210.66 L 208.76 214.07 Z M 118.56 194.02 L 114.16 195.14 L 109.46 193.80 L 105.10 191.85 L 112.19 190.62 L 117.88 191.27 L 118.56 194.02 Z M 74.43 166.24 L 78.85 167.61 L 83.33 166.87 L 89.13 168.76 L 96.25 169.72 L 95.66 170.50 L 90.22 172.02 L 84.76 170.46 L 82.03 169.16 L 75.71 169.58 L 74.00 168.94 L 74.43 166.24 Z M 193.97 113.40 L 199.16 116.64 L 202.35 115.25 L 214.47 115.68 L 214.04 117.33 L 225.02 118.55 L 232.33 117.84 L 247.45 120.10 L 261.24 120.78 L 266.77 121.71 L 276.31 120.54 L 287.19 122.70 L 294.99 123.70 L 294.94 150.33 L 294.90 191.18 L 301.97 191.39 L 308.96 193.38 L 313.96 196.52 L 320.34 201.23 L 327.32 197.22 L 334.52 194.90 L 338.33 198.61 L 343.16 201.55 L 349.73 204.78 L 354.21 209.93 L 361.55 218.11 L 373.74 222.68 L 373.94 227.20 L 369.95 230.66 L 366.01 227.96 L 359.69 225.67 L 357.66 219.42 L 348.41 213.61 L 344.54 206.84 L 337.66 206.38 L 326.25 206.20 L 317.84 204.14 L 303.01 196.69 L 296.14 195.33 L 283.59 192.77 L 273.66 193.38 L 259.55 190.09 L 251.03 187.03 L 243.06 188.55 L 244.54 193.53 L 240.58 193.99 L 232.28 195.49 L 225.96 197.91 L 218.01 199.43 L 216.99 195.21 L 220.21 188.17 L 227.84 185.96 L 225.87 184.16 L 216.72 188.16 L 211.83 192.93 L 201.49 198.04 L 206.74 201.52 L 199.96 206.67 L 192.25 209.68 L 185.07 211.86 L 183.29 215.04 L 172.09 218.75 L 169.83 222.11 L 161.43 225.18 L 156.51 224.63 L 149.81 226.63 L 142.53 229.07 L 136.57 231.47 L 124.26 233.52 L 123.13 232.31 L 130.98 228.96 L 138.00 226.75 L 145.64 222.82 L 154.54 222.01 L 158.08 219.07 L 168.02 214.78 L 169.63 213.34 L 174.92 210.81 L 176.16 205.37 L 179.81 201.13 L 171.54 203.31 L 169.22 202.07 L 165.34 204.68 L 160.66 201.04 L 158.72 203.62 L 156.04 200.04 L 148.87 202.91 L 144.46 202.91 L 143.84 198.64 L 145.14 196.00 L 140.52 193.45 L 131.19 194.82 L 125.14 191.46 L 120.23 189.74 L 120.20 185.67 L 114.67 182.62 L 117.45 178.49 L 123.30 174.49 L 125.86 170.80 L 131.66 170.28 L 136.58 171.43 L 142.37 167.97 L 147.58 168.59 L 153.04 166.36 L 151.71 163.08 L 147.70 161.79 L 153.01 159.02 L 148.60 159.11 L 140.99 160.67 L 138.80 162.25 L 133.15 160.67 L 123.00 161.47 L 112.49 159.76 L 109.48 156.87 L 100.40 152.70 L 110.48 149.70 L 126.49 146.20 L 132.38 146.20 L 131.41 149.78 L 146.55 149.50 L 140.73 145.06 L 131.90 142.32 L 126.80 138.74 L 119.92 135.68 L 110.06 133.41 L 114.08 129.65 L 126.80 129.42 L 135.86 126.15 L 137.56 122.66 L 144.89 119.25 L 151.88 118.43 L 165.48 115.24 L 172.08 115.72 L 183.11 111.90 L 193.97 113.40 Z" fill="#201813" stroke="#d52830" stroke-width="8" stroke-linejoin="round" fill-rule="evenodd"/>
  </g>
</svg>
