<?xml version="1.0" encoding="UTF-8"?>
<svg xmlns="http://www.w3.org/2000/svg" viewBox="0 0 900 600" role="img" aria-label="Ulke haritasi">
  <defs>
    <linearGradient id="paper" x1="0" y1="0" x2="1" y2="1">
      <stop offset="0%" stop-color="#fffdf8"/>
      <stop offset="100%" stop-color="#fff3d2"/>
    </linearGradient>
    <filter id="mapShadow" x="-10%" y="-10%" width="120%" height="120%">
      <feDropShadow dx="0" dy="12" stdDeviation="14" flood-color="#b58f42" flood-opacity="0.16"/>
    </filter>
  </defs>
  <rect x="22" y="22" width="856" height="556" rx="34" fill="url(#paper)" stroke="#e3d0a7" stroke-width="2"/>
  <g filter="url(#mapShadow)">
    <path d="M 423.24 525.32 L 410.40 526.00 L 403.50 521.22 L 395.35 520.86 L 380.86 520.85 L 380.85 490.65 L 386.05 496.92 L 392.81 507.06 L 410.40 515.18 L 429.33 518.56 L 423.24 525.32 Z M 430.48 77.29 L 438.43 87.06 L 443.71 76.18 L 459.14 76.74 L 461.32 79.64 L 486.19 101.71 L 497.24 103.76 L 513.77 113.75 L 527.70 119.04 L 529.64 125.01 L 516.33 145.57 L 529.97 149.25 L 545.16 151.32 L 555.85 149.14 L 568.12 138.78 L 570.33 126.84 L 577.03 124.25 L 583.82 132.06 L 583.54 142.86 L 572.15 150.32 L 563.07 155.83 L 547.80 168.96 L 529.76 187.40 L 526.38 198.22 L 522.76 212.13 L 522.89 225.60 L 519.96 228.61 L 518.91 237.35 L 517.99 244.41 L 535.16 256.00 L 533.31 265.32 L 541.76 271.22 L 541.08 277.82 L 528.08 295.17 L 508.03 302.42 L 480.90 305.24 L 466.04 303.88 L 468.88 311.94 L 466.11 322.07 L 468.61 328.89 L 460.50 333.65 L 446.64 335.51 L 433.63 330.59 L 428.41 334.13 L 430.30 347.57 L 439.43 351.64 L 446.83 347.37 L 450.86 354.40 L 438.41 358.60 L 427.55 367.01 L 425.56 380.62 L 422.36 387.86 L 409.58 387.90 L 398.98 394.83 L 395.10 404.97 L 408.41 414.87 L 421.34 417.61 L 416.68 429.74 L 400.71 437.37 L 391.92 453.23 L 379.57 458.56 L 374.03 464.90 L 378.40 478.95 L 387.40 486.78 L 381.70 486.09 L 369.16 483.97 L 336.48 482.16 L 330.87 474.28 L 331.13 464.15 L 322.13 465.02 L 317.36 460.11 L 316.18 445.77 L 326.56 439.82 L 330.85 431.24 L 329.28 424.40 L 336.45 412.85 L 341.39 394.95 L 339.94 387.00 L 345.84 384.44 L 344.39 379.35 L 338.12 376.64 L 342.58 370.96 L 336.47 365.84 L 333.31 350.23 L 338.75 347.48 L 336.47 330.99 L 339.65 317.14 L 343.26 305.07 L 351.36 300.16 L 347.25 286.96 L 347.20 274.53 L 357.44 265.70 L 357.13 254.40 L 364.85 241.20 L 364.88 228.76 L 361.37 226.29 L 355.14 202.94 L 363.47 189.02 L 362.20 175.92 L 367.03 163.63 L 375.89 150.95 L 385.43 142.54 L 381.39 137.23 L 384.21 132.87 L 383.78 110.33 L 398.51 103.66 L 403.16 89.61 L 401.51 86.22 L 412.78 74.00 L 430.48 77.29 Z" fill="#201813" stroke="#d52830" stroke-width="8" stroke-linejoin="round" fill-rule="evenodd"/>
  </g>
</svg>
