<?xml version="1.0" encoding="UTF-8"?>
<svg xmlns="http://www.w3.org/2000/svg" viewBox="0 0 900 600" role="img" aria-label="Ulke haritasi">
  <defs>
    <linearGradient id="paper" x1="0" y1="0" x2="1" y2="1">
      <stop offset="0%" stop-color="#fffdf8"/>
      <stop offset="100%" stop-color="#fff3d2"/>
    </linearGradient>
    <filter id="mapShadow" x="-10%" y="-10%" width="120%" height="120%">
      <feDropShadow dx="0" dy="12" stdDeviation="14" flood-color="#b58f42" flood-opacity="0.16"/>
    </filter>
  </defs>
  <rect x="22" y="22" width="856" height="556" rx="34" fill="url(#paper)" stroke="#e3d0a7" stroke-width="2"/>
  <g filter="url(#mapShadow)">
    <path d="M 613.76 487.03 L 627.01 491.77 L 634.47 489.88 L 645.18 487.25 L 653.40 488.17 L 654.37 504.44 L 649.67 509.17 L 648.26 520.20 L 643.47 516.44 L 633.95 526.00 L 631.11 525.26 L 622.68 524.84 L 614.23 513.10 L 612.35 504.05 L 604.44 492.11 L 604.79 485.82 L 613.76 487.03 Z M 588.58 116.44 L 593.52 127.20 L 602.32 122.03 L 606.86 127.83 L 613.44 133.19 L 612.03 139.26 L 614.96 151.02 L 617.04 157.87 L 620.49 159.54 L 624.21 171.26 L 622.89 178.37 L 627.33 187.66 L 642.18 194.83 L 651.87 201.34 L 661.07 207.31 L 659.27 210.63 L 667.12 219.23 L 672.45 234.07 L 677.92 231.05 L 683.48 236.99 L 686.83 234.89 L 689.19 249.42 L 698.92 257.84 L 705.29 263.07 L 716.01 274.17 L 719.86 285.19 L 720.21 293.01 L 719.26 301.49 L 725.80 313.14 L 725.01 325.28 L 722.64 331.63 L 718.94 343.86 L 719.22 351.72 L 716.50 361.55 L 710.45 374.02 L 700.29 380.76 L 695.29 391.38 L 690.71 398.16 L 686.65 409.99 L 681.36 416.82 L 677.89 427.08 L 676.12 436.53 L 676.82 440.86 L 668.96 445.63 L 653.61 446.13 L 640.96 451.75 L 634.66 457.06 L 626.37 462.95 L 615.02 456.89 L 606.62 454.47 L 608.75 447.32 L 601.25 449.91 L 589.24 459.84 L 577.39 456.12 L 569.62 453.96 L 561.78 452.97 L 548.50 449.01 L 539.64 440.56 L 537.10 430.15 L 533.91 423.22 L 527.17 417.66 L 513.98 416.01 L 518.49 409.36 L 515.17 399.18 L 508.48 408.67 L 496.28 411.18 L 503.45 403.60 L 505.52 395.69 L 510.82 388.97 L 509.73 378.82 L 498.57 390.51 L 490.01 395.20 L 484.75 406.11 L 474.05 400.46 L 474.47 393.19 L 465.89 383.24 L 458.66 378.11 L 461.24 374.94 L 443.65 366.63 L 434.01 366.24 L 420.82 359.57 L 396.27 360.86 L 378.52 365.77 L 362.92 370.35 L 349.83 369.44 L 335.30 376.47 L 323.41 379.63 L 320.77 386.82 L 315.71 392.40 L 304.07 392.73 L 295.46 393.95 L 283.34 391.45 L 273.49 392.94 L 264.07 393.57 L 255.92 400.88 L 251.92 400.26 L 245.04 404.14 L 238.45 408.50 L 228.45 407.96 L 219.26 407.96 L 204.71 399.20 L 197.34 396.60 L 197.64 388.74 L 204.45 386.87 L 206.77 383.75 L 206.29 378.82 L 207.97 369.29 L 206.43 361.17 L 199.18 347.31 L 196.94 339.48 L 197.52 331.67 L 192.07 322.74 L 191.72 318.72 L 185.64 313.25 L 183.94 302.51 L 176.10 291.66 L 174.20 285.81 L 180.23 291.74 L 175.60 279.02 L 182.40 283.00 L 186.46 288.31 L 186.23 281.28 L 179.44 270.49 L 178.13 266.17 L 174.95 262.07 L 176.44 254.14 L 179.25 250.76 L 181.12 243.90 L 179.65 235.89 L 185.32 226.02 L 186.35 236.46 L 192.15 227.03 L 203.29 222.45 L 209.97 216.60 L 220.44 211.57 L 226.68 210.50 L 230.45 212.19 L 241.26 207.08 L 249.57 205.56 L 251.65 202.55 L 255.28 201.30 L 262.86 201.63 L 277.27 197.61 L 284.72 191.52 L 288.22 184.20 L 296.27 177.24 L 296.88 171.76 L 297.24 164.31 L 306.84 152.66 L 312.61 164.50 L 318.45 161.76 L 313.56 155.28 L 317.87 148.63 L 323.92 151.60 L 325.58 141.17 L 333.07 134.42 L 336.38 129.01 L 343.27 126.68 L 343.49 122.84 L 349.51 124.44 L 349.75 121.00 L 355.78 119.03 L 362.41 117.19 L 372.54 123.48 L 380.15 131.60 L 388.73 131.69 L 397.45 132.98 L 394.54 125.45 L 401.11 114.45 L 407.29 110.87 L 405.16 107.45 L 411.11 99.61 L 419.41 94.78 L 426.43 96.41 L 437.95 93.82 L 437.70 86.82 L 427.66 82.30 L 434.96 80.31 L 444.04 83.71 L 451.32 89.33 L 462.87 92.84 L 466.79 91.45 L 475.29 95.67 L 483.30 91.74 L 488.45 92.94 L 491.66 90.30 L 497.95 97.09 L 494.30 104.43 L 489.09 109.96 L 484.38 110.42 L 485.97 115.90 L 481.94 122.75 L 477.07 129.49 L 478.05 133.36 L 488.95 140.94 L 499.51 145.33 L 506.57 150.05 L 516.48 158.18 L 520.35 158.16 L 527.53 161.67 L 529.61 165.91 L 542.70 170.56 L 551.75 165.88 L 554.43 158.51 L 557.22 152.44 L 558.92 144.92 L 563.09 134.01 L 561.18 127.38 L 562.17 123.39 L 560.59 115.54 L 562.38 105.21 L 565.01 102.43 L 562.88 97.85 L 566.19 90.58 L 568.80 83.05 L 569.14 79.14 L 574.24 74.00 L 578.10 80.71 L 579.05 89.31 L 582.47 90.97 L 583.06 96.73 L 588.04 103.70 L 589.07 111.46 L 588.58 116.44 Z" fill="#201813" stroke="#d52830" stroke-width="8" stroke-linejoin="round" fill-rule="evenodd"/>
  </g>
</svg>
