<?xml version="1.0" encoding="UTF-8"?>
<svg xmlns="http://www.w3.org/2000/svg" viewBox="0 0 900 600" role="img" aria-label="Ulke haritasi">
  <defs>
    <linearGradient id="paper" x1="0" y1="0" x2="1" y2="1">
      <stop offset="0%" stop-color="#fffdf8"/>
      <stop offset="100%" stop-color="#fff3d2"/>
    </linearGradient>
    <filter id="mapShadow" x="-10%" y="-10%" width="120%" height="120%">
      <feDropShadow dx="0" dy="12" stdDeviation="14" flood-color="#b58f42" flood-opacity="0.16"/>
    </filter>
  </defs>
  <rect x="22" y="22" width="856" height="556" rx="34" fill="url(#paper)" stroke="#e3d0a7" stroke-width="2"/>
  <g filter="url(#mapShadow)">
    <path d="M 412.15 484.85 L 427.61 469.05 L 440.69 457.80 L 448.47 453.08 L 458.22 446.70 L 458.46 437.44 L 452.65 430.76 L 446.91 432.98 L 449.19 426.29 L 450.75 419.44 L 450.76 413.07 L 446.59 410.97 L 442.25 412.84 L 437.93 412.33 L 436.57 407.87 L 435.49 397.25 L 433.32 393.79 L 425.50 390.65 L 420.77 392.92 L 408.54 390.70 L 409.31 374.97 L 405.88 368.53 L 409.51 366.13 L 408.39 359.53 L 411.56 354.45 L 413.62 345.33 L 410.89 338.12 L 404.56 334.87 L 403.32 330.30 L 405.02 323.61 L 382.80 323.13 L 378.35 309.64 L 381.73 309.45 L 381.58 304.45 L 379.32 301.07 L 378.81 294.37 L 372.08 290.93 L 364.79 291.05 L 360.00 287.68 L 352.16 285.39 L 347.60 281.06 L 334.63 279.15 L 322.05 268.77 L 322.98 261.00 L 321.56 256.55 L 322.79 247.86 L 307.63 249.83 L 301.52 254.18 L 291.39 258.87 L 288.81 262.38 L 282.84 262.63 L 274.23 261.65 L 267.69 263.64 L 262.42 262.31 L 263.20 244.71 L 253.69 251.54 L 243.47 251.24 L 239.09 245.06 L 231.40 244.39 L 233.84 239.42 L 227.41 232.37 L 222.58 221.93 L 225.64 219.81 L 225.63 214.92 L 232.63 211.58 L 231.48 205.31 L 234.43 201.28 L 235.27 195.87 L 248.52 187.99 L 258.02 185.76 L 259.57 184.02 L 270.01 184.56 L 275.22 152.79 L 275.49 147.77 L 273.68 141.13 L 268.54 136.91 L 268.60 128.49 L 275.12 126.58 L 277.44 127.78 L 277.83 123.34 L 271.04 122.14 L 270.90 114.89 L 293.47 115.15 L 297.31 111.16 L 300.53 114.83 L 302.78 121.67 L 304.97 120.24 L 311.35 126.37 L 320.36 125.62 L 322.60 122.07 L 331.22 119.37 L 335.99 117.47 L 337.33 112.56 L 345.61 109.26 L 344.98 106.83 L 335.17 105.83 L 333.56 98.54 L 334.03 90.77 L 328.84 87.76 L 331.01 86.70 L 339.59 88.18 L 348.80 91.08 L 352.15 88.34 L 360.48 86.54 L 373.44 82.20 L 377.67 77.78 L 376.14 74.51 L 382.16 74.00 L 384.86 76.67 L 383.35 81.76 L 387.33 83.51 L 389.99 88.90 L 386.78 92.98 L 384.93 102.84 L 387.90 108.70 L 388.74 114.06 L 395.87 119.50 L 401.55 120.07 L 402.84 117.80 L 406.50 117.30 L 411.74 115.27 L 415.51 112.19 L 421.91 113.17 L 424.73 112.75 L 431.03 113.70 L 432.08 111.34 L 430.13 109.03 L 431.29 105.68 L 435.97 106.71 L 441.44 105.52 L 448.08 107.98 L 453.13 110.37 L 456.72 107.23 L 459.31 107.71 L 460.89 110.97 L 466.44 110.14 L 470.88 105.74 L 474.44 97.21 L 481.29 86.61 L 485.24 86.06 L 488.10 92.47 L 494.60 112.73 L 500.80 114.64 L 501.11 122.64 L 492.40 132.18 L 496.00 135.67 L 516.48 137.49 L 516.90 149.10 L 525.70 141.50 L 540.28 145.66 L 559.52 152.74 L 565.18 159.53 L 563.28 165.94 L 576.75 162.37 L 599.30 168.50 L 616.60 168.05 L 633.73 177.64 L 648.53 190.62 L 657.45 193.96 L 667.36 194.42 L 671.56 198.08 L 675.49 212.83 L 677.42 219.84 L 672.80 238.99 L 666.91 246.56 L 650.58 262.68 L 643.20 275.78 L 634.62 285.82 L 631.72 286.05 L 628.49 294.57 L 629.31 316.28 L 626.08 334.14 L 624.85 341.78 L 621.18 346.35 L 619.13 361.84 L 607.38 376.96 L 605.41 388.93 L 596.03 393.95 L 593.32 400.89 L 580.73 400.86 L 562.51 405.32 L 554.35 410.47 L 541.37 413.86 L 527.74 423.08 L 517.93 434.57 L 516.24 443.22 L 518.17 449.62 L 516.01 461.32 L 513.38 466.98 L 505.28 473.35 L 492.42 493.75 L 482.24 502.94 L 474.36 508.35 L 469.08 519.38 L 461.41 526.00 L 458.20 519.44 L 463.31 513.94 L 456.61 506.06 L 447.52 499.66 L 435.60 492.23 L 431.29 492.57 L 419.67 483.61 L 412.15 484.85 Z" fill="#201813" stroke="#d52830" stroke-width="8" stroke-linejoin="round" fill-rule="evenodd"/>
  </g>
</svg>
