<?xml version="1.0" encoding="UTF-8"?>
<svg xmlns="http://www.w3.org/2000/svg" viewBox="0 0 900 600" role="img" aria-label="Ulke haritasi">
  <defs>
    <linearGradient id="paper" x1="0" y1="0" x2="1" y2="1">
      <stop offset="0%" stop-color="#fffdf8"/>
      <stop offset="100%" stop-color="#fff3d2"/>
    </linearGradient>
    <filter id="mapShadow" x="-10%" y="-10%" width="120%" height="120%">
      <feDropShadow dx="0" dy="12" stdDeviation="14" flood-color="#b58f42" flood-opacity="0.16"/>
    </filter>
  </defs>
  <rect x="22" y="22" width="856" height="556" rx="34" fill="url(#paper)" stroke="#e3d0a7" stroke-width="2"/>
  <g filter="url(#mapShadow)">
    <path d="M 708.82 415.53 L 623.07 463.23 L 550.61 512.39 L 515.32 523.55 L 487.55 526.00 L 487.27 510.08 L 475.68 506.01 L 460.10 498.85 L 454.15 487.12 L 369.73 432.52 L 285.30 377.91 L 191.18 317.32 L 191.66 312.47 L 191.65 310.80 L 191.44 281.14 L 231.85 262.68 L 256.84 258.86 L 277.33 252.14 L 286.90 239.60 L 316.16 229.70 L 317.23 211.17 L 331.71 208.99 L 343.03 199.73 L 375.79 195.51 L 380.37 185.79 L 373.78 180.47 L 365.14 154.05 L 363.65 138.83 L 354.21 122.80 L 378.27 109.13 L 405.33 104.78 L 421.13 94.45 L 445.23 86.83 L 487.64 82.37 L 529.04 80.34 L 541.66 84.06 L 565.23 74.19 L 591.97 74.00 L 602.15 79.82 L 619.26 78.30 L 614.18 91.15 L 618.15 115.01 L 612.26 135.65 L 596.83 149.60 L 599.03 168.46 L 619.50 183.37 L 619.72 189.42 L 635.15 199.52 L 645.82 244.45 L 653.92 266.55 L 655.28 278.17 L 650.87 298.59 L 652.68 310.00 L 649.50 323.70 L 651.68 339.43 L 641.75 349.89 L 656.55 368.13 L 657.49 378.86 L 666.38 392.81 L 678.08 388.23 L 697.84 399.85 L 708.82 415.53 Z" fill="#201813" stroke="#d52830" stroke-width="8" stroke-linejoin="round" fill-rule="evenodd"/>
  </g>
</svg>
