<?xml version="1.0" encoding="UTF-8"?>
<svg xmlns="http://www.w3.org/2000/svg" viewBox="0 0 900 600" role="img" aria-label="Ulke haritasi">
  <defs>
    <linearGradient id="paper" x1="0" y1="0" x2="1" y2="1">
      <stop offset="0%" stop-color="#fffdf8"/>
      <stop offset="100%" stop-color="#fff3d2"/>
    </linearGradient>
    <filter id="mapShadow" x="-10%" y="-10%" width="120%" height="120%">
      <feDropShadow dx="0" dy="12" stdDeviation="14" flood-color="#b58f42" flood-opacity="0.16"/>
    </filter>
  </defs>
  <rect x="22" y="22" width="856" height="556" rx="34" fill="url(#paper)" stroke="#e3d0a7" stroke-width="2"/>
  <g filter="url(#mapShadow)">
    <path d="M 523.40 510.21 L 512.81 516.10 L 502.76 512.30 L 502.40 501.76 L 508.45 496.21 L 521.84 492.77 L 528.88 493.06 L 531.62 497.74 L 526.24 503.13 L 523.40 510.21 Z M 735.68 129.23 L 757.01 133.15 L 771.53 141.86 L 776.49 153.38 L 795.12 153.39 L 805.74 148.56 L 826.00 144.94 L 819.56 155.97 L 814.80 160.46 L 810.60 173.89 L 802.35 185.81 L 787.48 183.64 L 776.96 187.97 L 780.19 198.47 L 778.42 212.95 L 772.16 213.28 L 772.24 219.51 L 764.32 212.27 L 759.45 219.14 L 740.52 224.42 L 742.43 230.89 L 731.83 230.44 L 726.01 226.60 L 717.59 235.29 L 704.08 241.88 L 694.10 249.74 L 676.97 253.31 L 667.94 259.03 L 654.74 262.38 L 661.26 256.70 L 658.69 251.93 L 668.40 243.69 L 661.92 237.27 L 651.24 241.59 L 637.40 250.11 L 629.85 258.03 L 617.83 258.62 L 611.57 264.34 L 618.03 272.63 L 628.07 274.64 L 628.48 280.14 L 638.17 283.72 L 651.91 274.97 L 662.79 279.74 L 670.72 280.07 L 672.71 286.49 L 655.35 289.91 L 649.63 296.53 L 637.71 302.68 L 631.41 311.26 L 644.61 317.99 L 649.42 330.05 L 656.88 341.28 L 665.21 350.70 L 665.01 359.80 L 657.31 363.15 L 660.25 369.69 L 667.46 373.49 L 665.58 383.48 L 662.46 393.19 L 655.61 394.29 L 646.66 407.56 L 636.74 423.65 L 625.35 438.27 L 608.50 449.59 L 591.45 459.90 L 577.64 461.31 L 570.14 466.76 L 565.90 462.78 L 558.97 468.87 L 541.84 475.01 L 528.87 476.89 L 524.69 489.83 L 517.89 490.55 L 514.68 481.65 L 517.58 476.91 L 501.14 472.99 L 495.34 474.98 L 483.00 471.80 L 477.17 466.82 L 479.11 459.76 L 467.90 457.52 L 461.99 452.93 L 451.54 459.46 L 439.63 460.87 L 429.85 460.81 L 423.27 463.80 L 416.92 465.60 L 418.77 479.62 L 412.24 479.28 L 411.13 476.40 L 410.77 471.34 L 401.78 474.91 L 396.47 472.65 L 387.37 468.05 L 390.93 457.87 L 383.17 455.49 L 380.25 444.21 L 367.31 446.24 L 368.78 431.70 L 380.39 421.46 L 380.88 411.35 L 380.52 401.97 L 375.17 399.05 L 371.08 391.84 L 363.91 392.75 L 350.69 390.92 L 354.83 385.77 L 349.08 378.15 L 340.35 383.31 L 330.06 380.30 L 315.94 388.10 L 304.78 397.22 L 294.89 398.75 L 289.53 395.46 L 283.05 395.16 L 274.29 392.32 L 267.67 395.43 L 259.56 404.54 L 258.53 394.89 L 251.06 397.47 L 236.77 396.27 L 222.90 393.46 L 212.95 388.07 L 203.43 385.66 L 199.31 379.77 L 192.43 378.01 L 180.05 370.03 L 170.23 366.26 L 165.14 369.19 L 148.11 360.62 L 136.07 352.86 L 132.63 339.35 L 141.42 340.99 L 141.83 334.74 L 136.95 328.46 L 138.19 318.46 L 125.02 304.10 L 104.86 299.14 L 101.23 289.72 L 92.17 284.01 L 89.99 280.49 L 88.15 273.50 L 88.58 268.74 L 81.14 265.95 L 77.11 267.18 L 74.00 255.84 L 77.49 253.03 L 75.80 250.17 L 87.50 244.37 L 95.97 241.98 L 108.95 243.62 L 113.58 235.79 L 129.30 234.34 L 133.67 229.47 L 152.99 222.83 L 154.71 220.06 L 153.73 213.07 L 162.14 209.88 L 151.11 188.59 L 175.39 183.69 L 181.66 180.96 L 190.51 159.02 L 214.82 163.05 L 221.64 157.51 L 222.23 145.22 L 232.41 144.08 L 241.74 135.91 L 246.53 134.91 L 249.75 143.46 L 260.05 149.96 L 277.54 154.56 L 286.00 164.43 L 281.28 178.76 L 285.69 184.07 L 300.25 186.17 L 316.76 187.88 L 331.57 195.52 L 339.14 196.88 L 344.73 208.18 L 351.92 215.46 L 365.44 215.17 L 390.74 217.92 L 407.04 216.21 L 419.14 218.04 L 437.27 225.48 L 452.10 225.47 L 457.53 229.29 L 471.80 222.70 L 491.60 218.45 L 509.97 217.98 L 524.29 213.67 L 533.09 207.11 L 541.67 202.98 L 539.69 198.94 L 535.77 194.23 L 542.21 186.33 L 549.10 187.44 L 561.70 189.92 L 573.92 183.41 L 592.61 178.66 L 601.59 170.56 L 610.21 167.08 L 628.02 165.45 L 637.69 166.83 L 639.03 162.47 L 627.92 153.91 L 618.09 149.99 L 608.67 154.51 L 596.57 152.60 L 589.64 154.16 L 586.48 149.15 L 595.14 136.90 L 601.11 127.66 L 615.82 132.29 L 633.10 124.54 L 632.98 119.15 L 644.05 106.15 L 650.87 102.22 L 650.71 95.45 L 643.99 92.54 L 654.11 86.44 L 669.34 84.23 L 685.59 83.90 L 703.94 87.55 L 714.70 92.06 L 722.28 104.42 L 726.87 109.70 L 731.14 117.22 L 735.68 129.23 Z" fill="#201813" stroke="#d52830" stroke-width="8" stroke-linejoin="round" fill-rule="evenodd"/>
  </g>
</svg>
