<?xml version="1.0" encoding="UTF-8"?>
<svg xmlns="http://www.w3.org/2000/svg" viewBox="0 0 900 600" role="img" aria-label="Ulke haritasi">
  <defs>
    <linearGradient id="paper" x1="0" y1="0" x2="1" y2="1">
      <stop offset="0%" stop-color="#fffdf8"/>
      <stop offset="100%" stop-color="#fff3d2"/>
    </linearGradient>
    <filter id="mapShadow" x="-10%" y="-10%" width="120%" height="120%">
      <feDropShadow dx="0" dy="12" stdDeviation="14" flood-color="#b58f42" flood-opacity="0.16"/>
    </filter>
  </defs>
  <rect x="22" y="22" width="856" height="556" rx="34" fill="url(#paper)" stroke="#e3d0a7" stroke-width="2"/>
  <g filter="url(#mapShadow)">
    <path d="M 491.96 428.23 L 485.04 428.54 L 463.22 417.02 L 478.55 413.79 L 487.19 418.80 L 492.94 423.79 L 491.96 428.23 Z M 553.12 426.59 L 539.05 430.21 L 537.08 428.23 L 538.56 422.64 L 545.63 412.62 L 561.88 406.09 L 563.55 409.33 L 563.85 414.31 L 553.12 426.59 Z M 445.67 392.98 L 451.60 397.37 L 461.76 396.02 L 465.83 403.01 L 446.83 406.31 L 435.44 408.52 L 426.60 408.39 L 432.25 398.92 L 441.26 398.79 L 445.67 392.98 Z M 527.93 392.96 L 525.52 402.09 L 500.82 406.76 L 478.95 404.73 L 478.89 398.72 L 491.95 395.30 L 502.25 400.23 L 513.20 398.98 L 527.93 392.96 Z M 293.16 371.31 L 324.65 372.95 L 328.28 366.17 L 358.78 374.08 L 364.76 384.74 L 389.43 387.73 L 409.59 397.50 L 390.83 403.77 L 372.75 397.14 L 357.87 397.59 L 340.81 396.37 L 325.43 393.42 L 306.38 387.14 L 294.31 385.52 L 287.47 387.57 L 257.49 380.80 L 254.64 373.73 L 239.60 372.52 L 250.88 356.82 L 270.82 357.79 L 284.09 364.21 L 290.91 365.46 L 293.16 371.31 Z M 722.27 362.05 L 713.81 373.24 L 712.21 360.87 L 715.13 354.96 L 718.57 349.40 L 722.31 354.21 L 722.27 362.05 Z M 599.37 316.75 L 593.22 322.21 L 581.86 319.19 L 578.66 312.12 L 595.29 311.33 L 599.37 316.75 Z M 652.35 310.75 L 658.32 323.32 L 644.44 316.54 L 630.71 315.17 L 621.43 316.25 L 610.06 315.67 L 613.95 306.63 L 634.26 305.95 L 652.35 310.75 Z M 712.72 278.82 L 717.31 305.41 L 734.32 315.25 L 748.06 297.81 L 766.93 287.89 L 781.54 287.88 L 795.60 293.61 L 807.80 299.49 L 825.45 302.63 L 825.72 356.21 L 826.00 409.79 L 811.36 396.29 L 794.66 392.99 L 790.61 397.67 L 769.78 398.18 L 776.76 384.80 L 787.11 380.23 L 782.83 362.35 L 774.94 348.55 L 743.06 334.63 L 729.51 333.26 L 704.82 318.06 L 699.97 326.05 L 693.66 327.50 L 689.92 321.47 L 689.87 314.33 L 677.31 306.26 L 695.02 300.33 L 706.74 300.65 L 705.37 296.29 L 681.30 296.26 L 674.79 286.47 L 660.10 283.44 L 653.14 275.30 L 675.30 271.32 L 683.73 265.96 L 710.12 272.71 L 712.72 278.82 Z M 566.35 236.54 L 553.14 252.85 L 540.79 256.01 L 524.96 252.80 L 497.57 253.62 L 483.20 255.98 L 480.87 268.43 L 495.58 283.05 L 504.46 275.60 L 535.11 270.01 L 533.76 277.58 L 526.60 275.19 L 519.46 284.82 L 504.99 291.19 L 520.55 312.26 L 517.54 317.91 L 532.33 336.89 L 532.18 347.69 L 523.41 352.52 L 516.96 346.74 L 524.90 333.28 L 508.77 339.64 L 504.68 335.09 L 506.81 328.74 L 494.96 319.10 L 496.18 303.08 L 485.22 308.08 L 486.61 327.25 L 487.28 350.77 L 476.85 353.16 L 469.79 348.33 L 474.50 333.20 L 471.95 317.33 L 465.04 317.21 L 459.94 305.95 L 466.73 295.18 L 469.07 282.13 L 477.33 257.35 L 480.78 250.57 L 494.76 238.36 L 507.60 243.21 L 528.32 245.50 L 547.23 244.81 L 563.48 232.87 L 566.35 236.54 Z M 623.03 241.27 L 622.17 255.63 L 613.69 254.02 L 611.19 264.03 L 617.96 272.71 L 613.36 274.68 L 606.73 264.27 L 601.84 243.25 L 605.15 230.12 L 610.61 224.13 L 611.79 233.11 L 621.49 234.55 L 623.03 241.27 Z M 445.27 229.84 L 463.70 245.05 L 444.22 246.99 L 438.74 258.20 L 439.45 273.10 L 423.64 284.34 L 423.21 300.71 L 416.87 325.85 L 414.45 320.01 L 395.77 327.40 L 389.26 317.35 L 377.53 316.43 L 369.34 311.16 L 349.79 317.07 L 343.79 309.11 L 333.02 310.02 L 319.47 308.12 L 316.96 286.07 L 308.75 281.50 L 300.86 267.44 L 298.57 253.05 L 300.49 237.82 L 310.25 226.90 L 313.00 237.88 L 324.24 247.17 L 334.85 243.83 L 345.34 245.01 L 354.92 236.70 L 362.81 235.26 L 378.36 239.87 L 391.77 236.36 L 400.20 213.50 L 406.53 207.78 L 412.22 189.08 L 431.12 189.09 L 445.37 191.86 L 436.02 206.71 L 448.11 222.27 L 445.27 229.84 Z M 247.03 356.10 L 228.83 356.44 L 214.98 342.70 L 193.87 329.27 L 186.83 319.30 L 174.39 305.91 L 166.22 293.59 L 153.72 270.58 L 139.28 256.87 L 134.45 242.74 L 128.39 229.90 L 113.57 219.55 L 104.97 205.49 L 92.59 196.28 L 75.44 178.16 L 74.00 169.79 L 84.58 170.46 L 110.04 173.63 L 124.57 189.71 L 137.29 200.86 L 146.35 207.70 L 161.93 225.37 L 178.64 225.63 L 192.46 236.89 L 201.97 250.65 L 214.49 258.17 L 207.90 271.59 L 217.32 277.30 L 223.23 277.72 L 226.02 289.19 L 231.74 298.36 L 243.81 299.82 L 251.81 310.22 L 247.68 330.67 L 247.03 356.10 Z" fill="#201813" stroke="#d52830" stroke-width="8" stroke-linejoin="round" fill-rule="evenodd"/>
  </g>
</svg>
