<?xml version="1.0" encoding="UTF-8"?>
<svg xmlns="http://www.w3.org/2000/svg" viewBox="0 0 900 600" role="img" aria-label="Ulke haritasi">
  <defs>
    <linearGradient id="paper" x1="0" y1="0" x2="1" y2="1">
      <stop offset="0%" stop-color="#fffdf8"/>
      <stop offset="100%" stop-color="#fff3d2"/>
    </linearGradient>
    <filter id="mapShadow" x="-10%" y="-10%" width="120%" height="120%">
      <feDropShadow dx="0" dy="12" stdDeviation="14" flood-color="#b58f42" flood-opacity="0.16"/>
    </filter>
  </defs>
  <rect x="22" y="22" width="856" height="556" rx="34" fill="url(#paper)" stroke="#e3d0a7" stroke-width="2"/>
  <g filter="url(#mapShadow)">
    <path d="M 572.26 74.15 L 591.26 87.53 L 621.24 85.35 L 653.89 92.31 L 667.58 92.65 L 679.46 112.84 L 681.34 132.01 L 692.23 165.29 L 700.53 171.98 L 694.75 184.24 L 653.50 189.55 L 639.24 201.21 L 621.01 203.95 L 619.65 227.29 L 582.80 239.77 L 570.74 255.55 L 544.94 264.02 L 513.46 268.83 L 462.56 292.09 L 462.83 329.44 L 458.03 329.44 L 458.03 329.44 L 458.75 346.33 L 439.27 347.34 L 429.11 354.51 L 414.79 354.51 L 403.39 350.42 L 376.87 353.81 L 366.60 378.37 L 356.75 380.68 L 341.93 420.42 L 298.11 454.44 L 287.70 497.96 L 274.79 512.12 L 271.00 523.48 L 200.02 526.00 L 199.47 525.95 L 200.95 511.34 L 213.06 502.75 L 223.38 486.33 L 221.34 475.66 L 232.18 453.42 L 249.73 433.38 L 260.34 428.30 L 268.68 409.91 L 269.43 393.12 L 280.81 373.63 L 301.81 362.14 L 321.79 329.95 L 322.36 329.51 L 338.21 317.41 L 367.53 313.92 L 392.36 292.38 L 408.17 283.98 L 434.48 257.66 L 426.60 218.44 L 438.58 191.32 L 442.81 174.72 L 463.08 153.43 L 494.71 139.03 L 518.09 126.00 L 539.15 93.36 L 549.06 74.00 L 572.26 74.15 Z" fill="#201813" stroke="#d52830" stroke-width="8" stroke-linejoin="round" fill-rule="evenodd"/>
  </g>
</svg>
