<?xml version="1.0" encoding="UTF-8"?>
<svg xmlns="http://www.w3.org/2000/svg" viewBox="0 0 900 600" role="img" aria-label="Ulke haritasi">
  <defs>
    <linearGradient id="paper" x1="0" y1="0" x2="1" y2="1">
      <stop offset="0%" stop-color="#fffdf8"/>
      <stop offset="100%" stop-color="#fff3d2"/>
    </linearGradient>
    <filter id="mapShadow" x="-10%" y="-10%" width="120%" height="120%">
      <feDropShadow dx="0" dy="12" stdDeviation="14" flood-color="#b58f42" flood-opacity="0.16"/>
    </filter>
  </defs>
  <rect x="22" y="22" width="856" height="556" rx="34" fill="url(#paper)" stroke="#e3d0a7" stroke-width="2"/>
  <g filter="url(#mapShadow)">
    <path d="M 608.11 426.90 L 611.67 450.13 L 613.73 469.75 L 601.82 501.75 L 589.04 466.10 L 572.69 483.84 L 583.85 509.61 L 573.83 526.00 L 532.67 505.70 L 522.84 480.39 L 533.51 463.76 L 511.36 447.22 L 500.37 461.72 L 483.91 460.38 L 458.03 479.89 L 452.24 469.65 L 465.97 440.18 L 488.00 430.34 L 507.07 417.16 L 519.43 433.00 L 546.02 423.42 L 551.73 407.81 L 576.45 406.88 L 574.37 379.84 L 602.72 396.42 L 605.66 414.03 L 608.11 426.90 Z M 524.37 361.70 L 511.81 373.20 L 500.85 395.30 L 489.87 405.65 L 468.33 381.48 L 475.54 372.12 L 484.32 362.32 L 488.18 340.61 L 507.46 338.56 L 501.83 362.10 L 527.71 328.34 L 524.37 361.70 Z M 332.80 395.36 L 286.27 428.55 L 303.41 404.09 L 328.68 382.49 L 349.68 358.29 L 368.01 323.55 L 374.24 352.07 L 351.15 371.33 L 332.80 395.36 Z M 450.97 305.29 L 471.96 316.12 L 494.22 316.07 L 493.54 330.68 L 477.34 345.53 L 455.13 356.03 L 453.90 339.78 L 456.38 321.94 L 450.97 305.29 Z M 577.54 295.82 L 587.36 334.87 L 560.38 325.59 L 561.11 337.33 L 569.66 358.91 L 553.03 366.74 L 551.57 342.15 L 541.04 340.33 L 535.57 319.16 L 556.15 321.95 L 555.69 308.71 L 534.32 282.00 L 567.90 282.77 L 577.54 295.82 Z M 438.51 264.10 L 429.24 294.32 L 414.26 276.87 L 396.41 250.22 L 426.37 251.51 L 438.51 264.10 Z M 431.31 74.04 L 452.86 84.03 L 463.64 74.92 L 466.83 83.80 L 461.14 98.30 L 473.08 123.37 L 463.87 152.44 L 443.25 164.03 L 437.73 192.22 L 445.56 220.08 L 464.10 223.93 L 479.57 219.79 L 523.25 239.18 L 519.92 258.22 L 531.33 266.62 L 527.70 282.74 L 500.44 265.57 L 487.52 247.20 L 478.52 260.04 L 456.25 239.10 L 424.49 244.27 L 407.08 236.54 L 408.86 222.08 L 419.78 213.19 L 409.34 205.10 L 404.83 217.70 L 387.56 197.61 L 382.33 182.38 L 381.03 148.90 L 395.11 160.40 L 398.74 105.69 L 410.13 74.00 L 431.31 74.04 Z" fill="#201813" stroke="#d52830" stroke-width="8" stroke-linejoin="round" fill-rule="evenodd"/>
  </g>
</svg>
