<?xml version="1.0" encoding="UTF-8"?>
<svg xmlns="http://www.w3.org/2000/svg" viewBox="0 0 900 600" role="img" aria-label="Ulke haritasi">
  <defs>
    <linearGradient id="paper" x1="0" y1="0" x2="1" y2="1">
      <stop offset="0%" stop-color="#fffdf8"/>
      <stop offset="100%" stop-color="#fff3d2"/>
    </linearGradient>
    <filter id="mapShadow" x="-10%" y="-10%" width="120%" height="120%">
      <feDropShadow dx="0" dy="12" stdDeviation="14" flood-color="#b58f42" flood-opacity="0.16"/>
    </filter>
  </defs>
  <rect x="22" y="22" width="856" height="556" rx="34" fill="url(#paper)" stroke="#e3d0a7" stroke-width="2"/>
  <g filter="url(#mapShadow)">
    <path d="M 696.23 328.49 L 689.28 333.62 L 674.23 351.66 L 664.33 369.91 L 644.19 395.35 L 604.05 431.99 L 578.99 453.30 L 552.17 469.46 L 515.06 483.24 L 496.95 485.08 L 492.37 494.94 L 470.79 489.69 L 453.21 496.45 L 414.72 489.61 L 393.20 493.94 L 378.50 492.08 L 341.87 506.10 L 311.55 511.72 L 289.61 525.15 L 273.46 526.00 L 258.44 513.34 L 246.43 512.69 L 231.14 496.83 L 229.46 501.76 L 224.74 492.21 L 224.94 471.39 L 213.40 447.59 L 224.86 441.12 L 223.93 413.87 L 200.68 380.63 L 182.83 350.55 L 182.78 350.45 L 157.28 304.31 L 174.30 286.75 L 188.32 296.47 L 194.31 311.66 L 210.24 314.25 L 232.57 320.96 L 251.65 318.37 L 283.35 300.21 L 283.38 169.05 L 292.97 174.38 L 314.02 208.13 L 310.75 229.76 L 318.68 242.23 L 344.11 238.61 L 361.87 222.76 L 378.69 212.08 L 387.38 195.07 L 404.71 186.84 L 419.67 191.15 L 436.64 201.10 L 465.54 202.85 L 488.25 194.58 L 491.84 183.50 L 498.09 166.51 L 517.41 163.67 L 528.09 150.33 L 539.91 126.67 L 571.80 100.15 L 622.05 74.00 L 636.49 74.39 L 653.68 80.40 L 665.64 76.14 L 684.52 79.69 L 701.53 129.67 L 710.77 154.90 L 704.44 194.49 L 707.47 207.24 L 689.55 200.74 L 679.29 203.27 L 675.94 213.61 L 666.24 226.94 L 666.57 239.22 L 687.77 258.47 L 708.55 254.64 L 715.78 238.87 L 742.72 239.17 L 733.84 265.02 L 729.65 294.52 L 720.46 310.55 L 696.23 328.49 Z M 605.93 317.77 L 590.42 306.83 L 573.83 314.07 L 554.58 327.97 L 535.65 350.45 L 562.29 377.77 L 574.99 374.24 L 581.52 362.89 L 601.31 357.35 L 607.35 345.76 L 618.25 328.49 L 605.93 317.77 Z" fill="#201813" stroke="#d52830" stroke-width="8" stroke-linejoin="round" fill-rule="evenodd"/>
  </g>
</svg>
