<?xml version="1.0" encoding="UTF-8"?>
<svg xmlns="http://www.w3.org/2000/svg" viewBox="0 0 900 600" role="img" aria-label="Ulke haritasi">
  <defs>
    <linearGradient id="paper" x1="0" y1="0" x2="1" y2="1">
      <stop offset="0%" stop-color="#fffdf8"/>
      <stop offset="100%" stop-color="#fff3d2"/>
    </linearGradient>
    <filter id="mapShadow" x="-10%" y="-10%" width="120%" height="120%">
      <feDropShadow dx="0" dy="12" stdDeviation="14" flood-color="#b58f42" flood-opacity="0.16"/>
    </filter>
  </defs>
  <rect x="22" y="22" width="856" height="556" rx="34" fill="url(#paper)" stroke="#e3d0a7" stroke-width="2"/>
  <g filter="url(#mapShadow)">
    <path d="M 368.69 74.00 L 386.34 93.24 L 384.68 106.64 L 391.21 115.04 L 390.67 123.43 L 378.89 121.22 L 383.49 139.32 L 399.62 149.71 L 422.44 161.20 L 412.02 168.64 L 405.65 184.00 L 421.56 190.21 L 437.04 198.27 L 458.45 207.48 L 480.96 209.61 L 490.43 217.96 L 503.11 219.53 L 522.87 223.35 L 536.54 223.08 L 538.42 216.58 L 536.26 206.15 L 537.53 199.07 L 547.54 195.62 L 548.92 208.55 L 549.27 211.84 L 564.20 218.07 L 574.52 215.51 L 588.38 216.61 L 601.78 216.12 L 602.93 206.03 L 596.25 200.79 L 609.49 198.74 L 624.44 186.53 L 643.36 176.07 L 657.13 180.11 L 668.84 173.19 L 676.54 183.40 L 670.99 190.30 L 688.70 192.75 L 689.94 198.98 L 684.18 201.99 L 685.53 212.09 L 673.79 209.12 L 652.54 220.47 L 653.03 229.86 L 643.97 243.64 L 643.14 251.64 L 635.82 265.18 L 622.99 261.43 L 622.35 278.43 L 618.64 284.02 L 620.38 290.99 L 612.27 294.89 L 603.63 268.84 L 599.09 268.89 L 596.41 279.39 L 587.42 270.88 L 592.49 261.53 L 599.83 260.58 L 607.41 246.69 L 597.94 243.88 L 582.71 244.13 L 567.09 241.88 L 565.64 230.46 L 557.80 229.65 L 544.80 222.55 L 539.00 233.69 L 550.85 242.39 L 540.58 248.50 L 536.94 254.49 L 547.04 258.89 L 544.25 268.78 L 549.94 281.13 L 552.50 294.65 L 550.14 300.64 L 538.97 300.44 L 518.73 303.85 L 519.68 316.20 L 510.91 325.91 L 487.28 336.96 L 468.91 356.28 L 456.56 366.64 L 440.20 377.39 L 440.18 384.94 L 431.99 388.99 L 417.20 394.87 L 409.53 395.73 L 404.61 408.26 L 408.03 429.61 L 408.90 443.23 L 401.94 458.83 L 401.86 486.73 L 393.37 487.52 L 385.89 500.05 L 390.89 505.46 L 375.92 510.11 L 370.39 521.28 L 363.80 526.00 L 348.26 510.67 L 340.65 487.68 L 334.36 471.11 L 328.60 463.35 L 319.88 447.57 L 315.81 427.04 L 312.97 416.78 L 298.03 394.23 L 291.23 362.41 L 286.32 341.40 L 286.38 321.51 L 283.19 306.14 L 259.30 315.97 L 247.73 314.00 L 226.28 294.10 L 234.17 288.16 L 229.32 281.72 L 210.06 267.78 L 221.00 256.83 L 257.13 256.87 L 253.87 242.77 L 244.65 234.45 L 242.78 221.81 L 232.03 214.44 L 250.13 197.22 L 269.19 198.47 L 286.37 181.26 L 296.66 164.60 L 312.60 148.12 L 312.35 136.42 L 326.35 126.92 L 313.09 118.81 L 307.39 107.70 L 301.57 93.31 L 309.62 86.23 L 334.53 90.24 L 352.83 87.80 L 368.69 74.00 Z" fill="#201813" stroke="#d52830" stroke-width="8" stroke-linejoin="round" fill-rule="evenodd"/>
  </g>
</svg>
