<?xml version="1.0" encoding="UTF-8"?>
<svg xmlns="http://www.w3.org/2000/svg" viewBox="0 0 900 600" role="img" aria-label="Ulke haritasi">
  <defs>
    <linearGradient id="paper" x1="0" y1="0" x2="1" y2="1">
      <stop offset="0%" stop-color="#fffdf8"/>
      <stop offset="100%" stop-color="#fff3d2"/>
    </linearGradient>
    <filter id="mapShadow" x="-10%" y="-10%" width="120%" height="120%">
      <feDropShadow dx="0" dy="12" stdDeviation="14" flood-color="#b58f42" flood-opacity="0.16"/>
    </filter>
  </defs>
  <rect x="22" y="22" width="856" height="556" rx="34" fill="url(#paper)" stroke="#e3d0a7" stroke-width="2"/>
  <g filter="url(#mapShadow)">
    <path d="M 110.59 182.21 L 113.51 140.95 L 89.85 115.81 L 171.81 74.00 L 242.71 84.45 L 320.50 84.09 L 382.15 93.98 L 430.25 90.94 L 523.89 92.86 L 546.98 115.39 L 653.64 141.72 L 674.70 129.19 L 739.89 155.40 L 807.05 147.89 L 810.15 181.54 L 755.25 220.13 L 681.01 232.38 L 675.84 251.87 L 640.23 283.99 L 617.90 331.15 L 640.50 364.26 L 606.99 390.11 L 594.46 427.77 L 550.71 439.31 L 509.69 483.86 L 436.15 484.75 L 380.93 483.65 L 344.64 504.11 L 322.51 526.00 L 294.16 521.19 L 272.71 501.62 L 256.29 468.29 L 202.20 459.32 L 197.37 440.13 L 218.84 418.41 L 226.79 402.66 L 206.81 385.43 L 222.81 347.37 L 199.60 312.63 L 224.63 307.86 L 226.96 280.48 L 236.37 272.00 L 237.11 226.80 L 263.88 211.11 L 247.69 182.05 L 213.93 180.03 L 204.01 187.34 L 169.79 187.41 L 155.26 159.04 L 131.62 167.49 L 110.59 182.21 Z" fill="#201813" stroke="#d52830" stroke-width="8" stroke-linejoin="round" fill-rule="evenodd"/>
  </g>
</svg>
