<?xml version="1.0" encoding="UTF-8"?>
<svg xmlns="http://www.w3.org/2000/svg" viewBox="0 0 900 600" role="img" aria-label="Ulke haritasi">
  <defs>
    <linearGradient id="paper" x1="0" y1="0" x2="1" y2="1">
      <stop offset="0%" stop-color="#fffdf8"/>
      <stop offset="100%" stop-color="#fff3d2"/>
    </linearGradient>
    <filter id="mapShadow" x="-10%" y="-10%" width="120%" height="120%">
      <feDropShadow dx="0" dy="12" stdDeviation="14" flood-color="#b58f42" flood-opacity="0.16"/>
    </filter>
  </defs>
  <rect x="22" y="22" width="856" height="556" rx="34" fill="url(#paper)" stroke="#e3d0a7" stroke-width="2"/>
  <g filter="url(#mapShadow)">
    <path d="M 605.15 185.24 L 573.26 208.18 L 578.39 228.32 L 526.08 254.76 L 462.58 283.05 L 438.63 329.36 L 462.04 352.53 L 493.49 370.77 L 463.28 407.87 L 429.08 415.57 L 416.53 470.77 L 397.86 501.58 L 357.96 498.40 L 339.35 524.49 L 301.27 526.00 L 290.82 494.91 L 263.29 457.59 L 238.28 411.08 L 252.78 392.13 L 280.14 369.59 L 291.02 330.93 L 270.01 314.26 L 267.98 270.59 L 289.34 239.75 L 321.96 240.31 L 333.40 227.28 L 321.43 216.04 L 372.49 169.78 L 405.39 133.32 L 427.10 109.92 L 458.68 110.03 L 467.38 91.72 L 529.36 96.99 L 534.18 75.35 L 554.58 74.00 L 598.42 90.09 L 649.75 112.48 L 650.62 163.13 L 661.72 175.92 L 605.15 185.24 Z M 436.73 459.44 L 441.60 461.39 L 415.95 499.12 L 413.78 486.71 L 436.73 459.44 Z M 512.24 440.60 L 493.99 450.71 L 494.71 457.49 L 500.31 457.59 L 498.87 459.92 L 490.38 462.07 L 490.92 465.39 L 482.79 467.94 L 478.10 474.53 L 471.05 475.71 L 473.76 468.53 L 469.97 463.34 L 472.68 459.15 L 470.69 454.19 L 489.30 441.56 L 501.76 441.18 L 503.93 439.45 L 512.78 439.36 L 512.24 440.60 Z M 561.19 247.72 L 568.42 247.52 L 565.35 251.27 L 560.47 255.76 L 556.23 255.36 L 560.29 251.31 L 559.66 249.16 L 561.19 247.72 Z" fill="#201813" stroke="#d52830" stroke-width="8" stroke-linejoin="round" fill-rule="evenodd"/>
  </g>
</svg>
