<?xml version="1.0" encoding="UTF-8"?>
<svg xmlns="http://www.w3.org/2000/svg" viewBox="0 0 900 600" role="img" aria-label="Ulke haritasi">
  <defs>
    <linearGradient id="paper" x1="0" y1="0" x2="1" y2="1">
      <stop offset="0%" stop-color="#fffdf8"/>
      <stop offset="100%" stop-color="#fff3d2"/>
    </linearGradient>
    <filter id="mapShadow" x="-10%" y="-10%" width="120%" height="120%">
      <feDropShadow dx="0" dy="12" stdDeviation="14" flood-color="#b58f42" flood-opacity="0.16"/>
    </filter>
  </defs>
  <rect x="22" y="22" width="856" height="556" rx="34" fill="url(#paper)" stroke="#e3d0a7" stroke-width="2"/>
  <g filter="url(#mapShadow)">
    <path d="M 575.12 456.61 L 559.61 490.51 L 566.06 503.85 L 557.02 526.00 L 524.08 509.78 L 502.18 505.13 L 442.07 483.24 L 448.10 461.12 L 498.50 465.06 L 542.43 460.37 L 575.12 456.61 Z M 303.35 328.32 L 329.19 358.90 L 323.14 415.86 L 303.56 413.14 L 286.00 427.52 L 269.69 416.10 L 267.96 364.14 L 258.13 339.52 L 281.82 341.68 L 303.35 328.32 Z M 439.72 88.98 L 501.31 100.10 L 496.64 121.31 L 506.96 139.65 L 472.67 133.38 L 437.66 148.66 L 440.04 170.04 L 434.77 182.31 L 448.89 204.23 L 489.27 225.92 L 510.93 261.53 L 558.85 296.23 L 592.60 295.97 L 603.09 305.49 L 591.01 314.07 L 629.58 329.63 L 661.20 342.66 L 698.13 365.12 L 702.59 373.16 L 694.54 388.58 L 670.64 368.48 L 633.23 361.39 L 615.10 389.25 L 646.23 405.21 L 641.12 427.68 L 623.13 430.24 L 600.12 467.18 L 582.17 470.49 L 582.34 457.33 L 591.12 434.23 L 600.48 425.03 L 583.67 400.07 L 570.52 378.35 L 552.64 372.99 L 539.93 354.40 L 512.26 346.57 L 493.62 329.26 L 461.76 326.47 L 428.10 307.03 L 388.71 278.99 L 359.42 254.19 L 345.99 211.61 L 324.56 206.61 L 289.53 192.39 L 269.70 198.21 L 244.82 218.20 L 226.92 221.35 L 231.85 202.66 L 208.50 197.20 L 197.41 163.87 L 212.34 150.76 L 199.67 134.59 L 201.44 122.42 L 219.97 131.64 L 240.74 129.59 L 264.88 114.99 L 272.34 121.81 L 292.86 120.45 L 302.19 103.08 L 334.05 108.47 L 353.03 101.21 L 356.44 83.55 L 382.53 89.68 L 387.54 81.49 L 430.10 74.00 L 439.72 88.98 Z" fill="#201813" stroke="#d52830" stroke-width="8" stroke-linejoin="round" fill-rule="evenodd"/>
  </g>
</svg>
