<?xml version="1.0" encoding="UTF-8"?>
<svg xmlns="http://www.w3.org/2000/svg" viewBox="0 0 900 600" role="img" aria-label="Ulke haritasi">
  <defs>
    <linearGradient id="paper" x1="0" y1="0" x2="1" y2="1">
      <stop offset="0%" stop-color="#fffdf8"/>
      <stop offset="100%" stop-color="#fff3d2"/>
    </linearGradient>
    <filter id="mapShadow" x="-10%" y="-10%" width="120%" height="120%">
      <feDropShadow dx="0" dy="12" stdDeviation="14" flood-color="#b58f42" flood-opacity="0.16"/>
    </filter>
  </defs>
  <rect x="22" y="22" width="856" height="556" rx="34" fill="url(#paper)" stroke="#e3d0a7" stroke-width="2"/>
  <g filter="url(#mapShadow)">
    <path d="M 361.69 428.90 L 365.67 439.57 L 348.15 458.41 L 335.37 448.42 L 319.41 455.66 L 311.15 473.87 L 290.87 465.00 L 291.12 450.24 L 308.34 431.67 L 326.03 435.27 L 338.83 422.19 L 361.69 428.90 Z M 558.96 335.75 L 547.23 360.59 L 552.66 376.18 L 536.45 398.12 L 496.68 412.77 L 441.96 414.67 L 397.62 450.20 L 376.71 438.24 L 375.41 414.98 L 321.28 421.84 L 284.44 436.50 L 248.01 437.10 L 279.56 460.00 L 258.80 512.90 L 238.67 526.00 L 223.61 513.90 L 231.25 485.85 L 211.54 476.80 L 198.90 455.46 L 228.33 445.87 L 244.65 426.30 L 275.96 410.21 L 298.79 388.93 L 360.75 379.65 L 394.03 386.01 L 426.59 330.68 L 447.35 345.54 L 493.01 314.41 L 510.71 302.32 L 530.27 264.26 L 524.94 229.26 L 538.08 209.60 L 571.18 203.88 L 588.15 247.05 L 587.23 272.29 L 558.43 303.63 L 558.96 335.75 Z M 650.27 116.87 L 672.16 123.51 L 694.18 110.32 L 701.10 145.26 L 654.93 153.78 L 627.67 184.69 L 578.73 163.41 L 561.79 197.47 L 527.17 197.94 L 522.89 166.99 L 538.28 143.04 L 571.54 141.31 L 580.61 98.26 L 589.81 74.00 L 626.39 106.41 L 650.27 116.87 Z" fill="#201813" stroke="#d52830" stroke-width="8" stroke-linejoin="round" fill-rule="evenodd"/>
  </g>
</svg>
