<?xml version="1.0" encoding="UTF-8"?>
<svg xmlns="http://www.w3.org/2000/svg" viewBox="0 0 900 600" role="img" aria-label="Ulke haritasi">
  <defs>
    <linearGradient id="paper" x1="0" y1="0" x2="1" y2="1">
      <stop offset="0%" stop-color="#fffdf8"/>
      <stop offset="100%" stop-color="#fff3d2"/>
    </linearGradient>
    <filter id="mapShadow" x="-10%" y="-10%" width="120%" height="120%">
      <feDropShadow dx="0" dy="12" stdDeviation="14" flood-color="#b58f42" flood-opacity="0.16"/>
    </filter>
  </defs>
  <rect x="22" y="22" width="856" height="556" rx="34" fill="url(#paper)" stroke="#e3d0a7" stroke-width="2"/>
  <g filter="url(#mapShadow)">
    <path d="M 732.23 435.37 L 738.41 436.51 L 746.30 436.28 L 742.11 439.77 L 738.96 440.32 L 728.16 436.71 L 726.04 433.86 L 729.25 431.23 L 732.23 435.37 Z M 748.05 413.62 L 743.90 413.78 L 732.87 411.11 L 724.96 407.09 L 727.90 406.37 L 739.09 408.50 L 747.80 412.06 L 748.05 413.62 Z M 222.85 418.69 L 218.57 419.87 L 204.59 416.01 L 202.04 412.98 L 194.42 410.01 L 192.89 407.58 L 184.13 406.05 L 180.85 401.42 L 181.58 399.45 L 190.52 401.30 L 195.74 402.59 L 203.74 403.49 L 206.63 406.43 L 210.84 410.47 L 219.34 413.99 L 222.85 418.69 Z M 796.33 400.16 L 790.70 407.60 L 796.25 404.73 L 801.97 406.55 L 798.98 409.52 L 806.53 411.85 L 810.46 409.78 L 818.95 412.40 L 816.31 418.63 L 822.27 417.17 L 823.36 421.69 L 826.00 426.98 L 822.42 434.47 L 818.57 434.79 L 812.97 433.18 L 814.82 426.22 L 812.45 425.14 L 802.57 432.52 L 797.49 432.22 L 803.50 428.22 L 795.34 426.16 L 786.19 426.66 L 769.67 426.40 L 768.36 423.88 L 773.67 420.89 L 769.96 418.58 L 777.11 413.45 L 785.91 399.89 L 791.18 395.05 L 798.57 392.11 L 802.52 392.49 L 800.87 394.79 L 796.33 400.16 Z M 144.54 371.62 L 152.71 370.94 L 150.16 380.60 L 157.57 387.45 L 154.18 387.43 L 149.05 383.54 L 145.90 379.62 L 141.61 376.97 L 140.03 373.23 L 140.54 370.51 L 144.54 371.62 Z M 599.44 302.52 L 596.11 306.99 L 592.34 306.27 L 590.11 303.73 L 590.51 303.14 L 593.79 300.58 L 597.28 300.77 L 599.44 302.52 Z M 577.03 297.82 L 567.07 302.51 L 561.06 302.31 L 559.20 300.01 L 565.52 296.09 L 577.21 296.17 L 577.03 297.82 Z M 549.26 272.74 L 550.84 276.48 L 555.19 275.17 L 560.14 277.40 L 569.46 280.32 L 579.21 282.97 L 579.97 287.02 L 586.23 286.35 L 592.31 289.17 L 584.76 291.85 L 571.51 289.81 L 566.73 285.98 L 558.29 290.50 L 546.18 294.91 L 543.25 289.93 L 531.72 290.75 L 539.12 286.54 L 540.21 279.84 L 543.11 272.04 L 549.26 272.74 Z M 628.38 260.04 L 618.84 260.47 L 616.71 256.30 L 620.33 251.53 L 628.13 250.35 L 634.77 252.71 L 634.87 256.35 L 633.91 257.53 L 628.38 260.04 Z M 460.00 243.37 L 454.71 246.35 L 443.24 243.77 L 436.31 244.70 L 424.68 240.88 L 432.17 238.24 L 438.12 234.55 L 447.15 236.96 L 452.26 238.50 L 454.81 240.11 L 460.00 243.37 Z M 503.42 240.05 L 503.38 248.75 L 514.75 242.08 L 524.93 247.56 L 522.40 253.87 L 530.63 259.62 L 539.52 253.46 L 545.72 246.12 L 546.19 236.78 L 558.29 237.43 L 570.87 238.68 L 582.29 242.91 L 582.80 247.13 L 576.47 251.67 L 582.47 256.22 L 581.39 260.36 L 564.72 266.32 L 552.88 267.63 L 544.08 265.07 L 541.55 269.34 L 533.34 276.52 L 530.86 280.24 L 520.99 286.00 L 508.80 286.56 L 502.08 290.16 L 501.52 295.69 L 491.62 296.76 L 481.20 303.66 L 471.97 313.24 L 468.67 319.95 L 468.20 329.84 L 480.71 331.26 L 484.54 339.23 L 488.52 345.68 L 500.43 344.00 L 516.25 347.69 L 524.76 350.92 L 530.85 354.94 L 541.51 357.29 L 550.53 360.87 L 564.59 361.36 L 573.85 362.18 L 572.45 369.56 L 575.10 378.11 L 581.27 387.64 L 593.93 395.72 L 600.49 392.95 L 605.09 384.20 L 600.65 370.75 L 594.64 366.28 L 608.27 362.29 L 617.91 356.32 L 622.63 350.39 L 621.93 344.70 L 616.15 337.47 L 605.81 331.06 L 615.86 322.14 L 612.15 314.44 L 609.30 301.15 L 615.23 299.18 L 629.82 301.50 L 638.57 302.32 L 645.62 300.09 L 653.55 302.97 L 664.03 307.91 L 666.61 311.21 L 681.79 311.85 L 681.54 319.01 L 684.37 329.76 L 692.14 331.09 L 698.31 336.11 L 710.64 331.38 L 718.78 321.99 L 724.41 318.03 L 731.04 325.63 L 742.12 336.49 L 751.54 346.70 L 748.11 352.05 L 759.44 356.85 L 767.09 361.71 L 780.66 363.91 L 786.12 366.63 L 789.50 373.83 L 796.12 374.96 L 799.54 378.17 L 800.16 387.73 L 793.99 390.93 L 787.88 393.92 L 773.85 396.95 L 763.14 403.94 L 748.75 405.32 L 730.55 403.53 L 717.77 403.47 L 708.96 404.06 L 701.83 410.16 L 690.98 413.94 L 678.70 425.20 L 668.91 433.06 L 676.13 431.66 L 689.80 420.48 L 707.65 413.38 L 720.39 412.54 L 727.92 416.71 L 719.88 422.43 L 722.58 431.60 L 725.36 438.02 L 736.41 442.27 L 750.48 441.04 L 759.01 431.47 L 759.61 437.65 L 765.10 440.73 L 754.57 446.31 L 735.72 451.37 L 727.28 454.82 L 717.77 460.95 L 711.30 460.32 L 710.98 453.12 L 725.76 446.08 L 712.13 446.36 L 702.67 447.39 L 697.11 442.58 L 697.11 430.98 L 693.33 428.52 L 687.63 429.97 L 684.80 427.73 L 678.31 434.15 L 675.71 440.78 L 672.69 444.65 L 669.07 445.97 L 666.35 446.39 L 665.50 448.49 L 649.81 448.50 L 636.88 448.56 L 633.04 450.13 L 624.05 456.26 L 622.98 456.92 L 620.26 460.23 L 612.44 460.23 L 604.08 460.27 L 600.24 461.62 L 601.62 463.29 L 602.38 465.88 L 602.22 466.75 L 591.08 470.98 L 582.31 472.32 L 572.43 476.86 L 570.29 476.86 L 567.40 475.52 L 566.45 474.31 L 566.63 473.42 L 568.51 470.44 L 572.51 465.76 L 575.00 460.73 L 573.29 453.33 L 571.48 445.61 L 562.61 441.61 L 563.66 440.10 L 562.41 439.06 L 560.07 439.06 L 558.36 437.71 L 557.93 435.69 L 556.28 436.57 L 554.00 436.31 L 554.52 435.47 L 552.51 434.63 L 551.69 432.39 L 545.08 429.67 L 538.19 426.83 L 529.87 423.54 L 521.88 420.45 L 514.26 422.86 L 511.48 422.94 L 501.01 420.73 L 494.12 421.84 L 485.86 419.20 L 477.17 417.84 L 471.23 417.32 L 468.58 415.88 L 467.07 411.21 L 464.19 411.25 L 464.16 414.52 L 446.55 414.51 L 417.43 414.52 L 388.50 414.52 L 362.95 414.52 L 337.42 414.52 L 312.31 414.52 L 286.36 414.52 L 277.99 414.52 L 252.73 414.52 L 228.55 414.52 L 227.41 414.50 L 210.93 406.14 L 204.85 402.46 L 189.44 398.94 L 184.69 391.40 L 185.91 386.18 L 175.02 382.55 L 173.52 375.69 L 163.23 369.51 L 163.05 365.13 L 167.78 361.02 L 167.54 355.65 L 153.07 350.24 L 144.37 340.53 L 139.05 334.42 L 131.25 330.58 L 125.52 327.10 L 121.00 322.70 L 112.46 325.45 L 104.18 330.21 L 96.61 324.62 L 90.67 320.89 L 82.38 318.53 L 74.00 318.28 L 74.04 269.82 L 74.10 238.22 L 89.98 240.28 L 103.38 244.37 L 112.25 245.15 L 119.72 241.60 L 130.03 238.94 L 142.68 239.98 L 155.43 236.25 L 169.36 234.12 L 175.20 237.65 L 181.55 235.66 L 183.46 231.65 L 189.34 232.56 L 203.73 240.19 L 215.06 234.42 L 216.21 240.88 L 226.67 239.49 L 229.88 237.00 L 240.19 237.49 L 253.21 241.07 L 273.13 244.19 L 284.84 245.63 L 293.18 245.09 L 304.66 249.40 L 292.69 253.62 L 308.07 255.45 L 331.05 254.45 L 338.30 252.96 L 347.37 258.06 L 356.63 253.75 L 347.95 250.14 L 353.44 247.23 L 363.80 246.84 L 370.61 245.99 L 377.48 248.02 L 386.04 252.64 L 395.54 251.96 L 410.58 255.80 L 423.79 254.45 L 436.21 254.65 L 435.23 249.36 L 442.79 247.87 L 455.98 250.76 L 455.93 258.81 L 461.35 252.02 L 468.20 252.25 L 472.05 243.70 L 462.93 238.45 L 452.99 235.01 L 453.68 225.60 L 463.74 219.43 L 474.96 220.79 L 483.58 224.55 L 495.14 234.14 L 487.59 238.33 L 503.42 240.05 Z M 302.37 209.20 L 298.12 213.19 L 317.06 210.62 L 328.90 214.92 L 338.52 210.57 L 346.30 213.36 L 353.26 221.72 L 357.54 218.19 L 351.49 209.48 L 358.98 208.23 L 367.44 209.59 L 376.97 213.02 L 382.32 221.32 L 384.96 227.32 L 399.25 231.54 L 414.61 235.57 L 413.69 239.31 L 399.71 239.99 L 405.14 243.27 L 402.27 246.39 L 386.87 245.05 L 372.23 242.75 L 362.33 243.27 L 346.35 246.16 L 324.78 247.43 L 309.64 248.24 L 305.03 244.22 L 293.41 241.90 L 285.85 242.85 L 275.37 236.11 L 281.03 235.21 L 294.17 233.75 L 306.17 234.14 L 317.28 232.65 L 300.82 230.67 L 282.63 231.34 L 270.56 231.17 L 266.07 228.03 L 285.81 224.63 L 272.68 224.75 L 257.82 222.51 L 264.96 216.13 L 270.89 212.74 L 293.67 207.56 L 302.37 209.20 Z M 384.66 206.66 L 377.17 212.28 L 363.89 206.32 L 366.78 205.13 L 378.19 204.79 L 384.66 206.66 Z M 624.34 209.36 L 625.10 211.72 L 616.05 211.47 L 606.88 211.29 L 597.56 212.43 L 595.10 211.92 L 585.73 207.40 L 586.09 204.34 L 590.19 203.77 L 609.67 204.69 L 624.34 209.36 Z M 537.34 208.90 L 544.04 214.20 L 551.91 207.34 L 573.48 203.85 L 588.08 212.65 L 586.82 218.22 L 603.65 215.75 L 611.71 212.37 L 630.59 216.68 L 642.31 220.73 L 643.42 224.45 L 659.22 222.52 L 668.09 227.94 L 688.64 231.30 L 696.05 234.73 L 704.11 242.70 L 688.48 246.67 L 708.52 252.22 L 722.04 254.09 L 734.27 261.92 L 747.66 262.48 L 745.01 268.46 L 730.07 278.34 L 719.60 274.70 L 706.21 266.52 L 695.20 267.58 L 694.13 272.46 L 703.08 277.41 L 714.63 281.32 L 718.14 283.58 L 723.68 292.01 L 720.75 298.13 L 710.01 295.82 L 688.66 289.01 L 700.70 296.34 L 709.56 301.48 L 710.94 304.45 L 687.86 301.06 L 669.60 296.11 L 659.28 291.97 L 662.25 289.57 L 649.55 285.19 L 637.16 281.06 L 637.29 283.53 L 612.68 284.89 L 605.48 281.97 L 611.09 275.70 L 627.08 275.55 L 644.60 274.46 L 641.76 271.42 L 644.73 267.18 L 655.74 258.89 L 653.40 255.12 L 650.12 252.20 L 637.08 248.08 L 619.84 245.18 L 625.29 243.03 L 616.28 237.73 L 608.78 237.25 L 602.07 234.35 L 597.51 236.86 L 582.08 237.96 L 551.10 236.06 L 533.10 233.56 L 519.30 232.28 L 512.22 229.29 L 521.12 225.40 L 509.03 225.37 L 506.33 216.75 L 512.87 209.14 L 521.62 205.66 L 543.60 203.40 L 537.34 208.90 Z M 419.92 203.05 L 430.07 204.85 L 445.26 203.77 L 447.47 206.24 L 439.53 210.32 L 452.41 213.98 L 450.88 221.64 L 436.92 224.94 L 428.72 224.23 L 422.83 220.98 L 401.68 214.41 L 401.85 211.68 L 419.23 212.74 L 409.85 207.17 L 419.92 203.05 Z M 480.87 212.18 L 471.74 218.54 L 462.03 218.22 L 456.72 210.75 L 456.85 206.51 L 461.30 202.90 L 469.74 200.58 L 487.48 200.87 L 503.74 202.95 L 491.02 210.53 L 480.87 212.18 Z M 248.81 224.00 L 226.41 228.10 L 221.91 224.37 L 202.26 219.87 L 205.91 216.26 L 211.81 210.05 L 219.19 204.45 L 210.87 199.23 L 239.64 197.91 L 251.79 199.67 L 273.53 200.14 L 281.80 202.61 L 290.94 206.19 L 280.24 208.34 L 259.36 214.32 L 248.81 220.28 L 248.81 224.00 Z M 477.32 193.38 L 472.69 196.68 L 460.34 196.05 L 450.02 193.83 L 454.55 190.00 L 466.79 187.71 L 474.22 190.69 L 477.32 193.38 Z M 435.73 178.57 L 442.23 182.52 L 442.50 186.89 L 438.62 193.21 L 424.59 194.09 L 415.44 192.73 L 415.61 187.76 L 401.66 188.42 L 401.12 181.84 L 410.28 182.10 L 423.10 179.20 L 435.07 179.69 L 435.73 178.57 Z M 353.07 182.99 L 356.40 186.02 L 363.98 184.59 L 372.90 184.96 L 374.40 189.13 L 369.22 193.17 L 340.40 194.49 L 318.92 198.18 L 305.98 198.37 L 304.89 195.60 L 322.57 191.83 L 284.11 192.84 L 272.21 191.32 L 283.83 183.01 L 291.84 180.63 L 315.79 183.50 L 330.91 188.54 L 345.78 189.19 L 333.61 181.04 L 341.41 177.94 L 350.20 178.93 L 353.07 182.99 Z M 468.21 175.36 L 477.65 178.10 L 494.41 178.08 L 501.76 180.88 L 499.82 184.07 L 509.59 186.00 L 514.99 188.02 L 526.47 188.40 L 538.89 189.11 L 552.42 187.26 L 569.75 186.54 L 583.59 187.14 L 592.70 190.35 L 594.60 193.87 L 589.29 196.13 L 576.60 197.96 L 565.71 196.93 L 541.29 198.24 L 523.82 198.39 L 510.08 197.34 L 487.46 194.60 L 484.51 189.92 L 483.48 185.70 L 474.93 181.99 L 457.32 180.95 L 447.46 178.31 L 450.66 174.82 L 468.21 175.36 Z M 285.08 170.70 L 283.91 177.24 L 277.36 180.19 L 269.40 180.61 L 253.58 184.25 L 239.96 185.55 L 228.43 183.71 L 228.43 183.71 L 242.87 177.34 L 260.35 171.83 L 273.41 171.95 L 285.08 170.70 Z M 475.39 171.77 L 471.51 172.01 L 455.56 171.47 L 453.29 169.09 L 470.43 169.21 L 476.41 170.79 L 475.39 171.77 Z M 336.25 170.26 L 320.38 172.71 L 307.76 169.96 L 314.65 167.25 L 327.08 166.38 L 339.08 167.71 L 336.25 170.26 Z M 340.71 162.56 L 330.34 164.22 L 316.20 164.21 L 316.34 162.99 L 325.07 160.44 L 329.64 160.83 L 340.71 162.56 Z M 458.45 167.19 L 445.86 168.95 L 438.92 166.97 L 435.28 163.78 L 434.60 160.26 L 445.62 160.60 L 450.58 161.16 L 460.76 164.12 L 458.45 167.19 Z M 422.45 164.92 L 425.76 168.47 L 411.86 167.52 L 397.85 164.76 L 378.90 164.44 L 387.12 161.91 L 376.83 159.86 L 376.21 156.60 L 392.92 157.76 L 415.93 160.87 L 422.45 164.92 Z M 533.44 153.55 L 543.70 156.30 L 532.01 158.83 L 516.29 165.23 L 501.23 165.85 L 483.59 164.76 L 474.44 161.29 L 474.57 158.20 L 481.30 155.93 L 465.74 156.00 L 456.36 153.17 L 450.96 149.31 L 456.86 145.53 L 462.76 142.93 L 471.49 142.34 L 467.77 140.39 L 487.56 139.95 L 498.43 144.50 L 512.76 146.32 L 526.71 147.93 L 533.44 153.55 Z M 691.07 124.22 L 713.82 124.88 L 732.10 125.97 L 747.68 128.28 L 747.30 130.55 L 726.53 134.25 L 705.94 135.97 L 698.25 137.88 L 716.78 137.83 L 696.69 143.00 L 682.82 145.41 L 668.26 152.36 L 650.71 153.77 L 645.28 155.51 L 619.51 156.42 L 631.24 157.49 L 625.36 159.01 L 632.40 163.20 L 624.31 166.12 L 611.16 168.53 L 607.13 171.86 L 595.24 174.41 L 596.43 176.33 L 610.97 176.00 L 611.16 178.08 L 588.41 183.19 L 566.17 180.84 L 541.17 182.16 L 528.50 181.13 L 512.41 180.68 L 511.34 176.60 L 527.08 174.67 L 522.88 168.53 L 528.08 167.93 L 550.83 171.61 L 539.23 166.15 L 525.42 164.51 L 532.32 161.22 L 547.41 159.19 L 549.82 156.23 L 537.80 152.90 L 534.19 148.52 L 557.46 148.88 L 564.18 149.81 L 577.46 146.70 L 558.29 145.72 L 528.51 146.26 L 513.47 143.37 L 506.37 139.93 L 496.43 137.44 L 494.57 134.53 L 507.22 132.91 L 517.16 132.63 L 533.86 131.25 L 546.38 128.08 L 556.93 128.53 L 566.12 130.91 L 572.59 126.31 L 583.83 124.95 L 599.09 124.01 L 625.11 123.66 L 629.63 124.58 L 654.21 123.14 L 672.64 123.68 L 691.07 124.22 Z" fill="#201813" stroke="#d52830" stroke-width="8" stroke-linejoin="round" fill-rule="evenodd"/>
  </g>
</svg>
