<?xml version="1.0" encoding="UTF-8"?>
<svg xmlns="http://www.w3.org/2000/svg" viewBox="0 0 900 600" role="img" aria-label="Ulke haritasi">
  <defs>
    <linearGradient id="paper" x1="0" y1="0" x2="1" y2="1">
      <stop offset="0%" stop-color="#fffdf8"/>
      <stop offset="100%" stop-color="#fff3d2"/>
    </linearGradient>
    <filter id="mapShadow" x="-10%" y="-10%" width="120%" height="120%">
      <feDropShadow dx="0" dy="12" stdDeviation="14" flood-color="#b58f42" flood-opacity="0.16"/>
    </filter>
  </defs>
  <rect x="22" y="22" width="856" height="556" rx="34" fill="url(#paper)" stroke="#e3d0a7" stroke-width="2"/>
  <g filter="url(#mapShadow)">
    <path d="M 588.43 356.50 L 614.72 393.12 L 583.63 410.85 L 572.67 429.37 L 556.03 432.62 L 549.74 463.90 L 535.48 481.81 L 526.82 511.34 L 508.94 526.00 L 445.23 481.63 L 442.20 455.88 L 281.25 365.45 L 273.75 360.57 L 273.30 313.53 L 286.01 295.54 L 307.86 266.16 L 324.01 233.81 L 304.48 182.85 L 299.29 160.58 L 278.25 129.76 L 305.55 103.25 L 335.64 74.00 L 358.70 81.45 L 358.70 106.36 L 373.86 120.97 L 404.76 120.97 L 460.95 158.67 L 474.98 159.11 L 485.37 157.89 L 495.20 163.01 L 524.80 166.50 L 537.92 148.01 L 578.47 129.44 L 596.37 144.44 L 626.70 144.45 L 587.90 194.80 L 588.43 356.50 Z" fill="#201813" stroke="#d52830" stroke-width="8" stroke-linejoin="round" fill-rule="evenodd"/>
  </g>
</svg>
