<?xml version="1.0" encoding="UTF-8"?>
<svg xmlns="http://www.w3.org/2000/svg" viewBox="0 0 900 600" role="img" aria-label="Ulke haritasi">
  <defs>
    <linearGradient id="paper" x1="0" y1="0" x2="1" y2="1">
      <stop offset="0%" stop-color="#fffdf8"/>
      <stop offset="100%" stop-color="#fff3d2"/>
    </linearGradient>
    <filter id="mapShadow" x="-10%" y="-10%" width="120%" height="120%">
      <feDropShadow dx="0" dy="12" stdDeviation="14" flood-color="#b58f42" flood-opacity="0.16"/>
    </filter>
  </defs>
  <rect x="22" y="22" width="856" height="556" rx="34" fill="url(#paper)" stroke="#e3d0a7" stroke-width="2"/>
  <g filter="url(#mapShadow)">
    <path d="M 384.11 414.02 L 372.54 407.62 L 359.29 398.68 L 351.61 402.97 L 328.70 399.23 L 322.12 387.61 L 317.08 388.04 L 290.07 372.62 L 286.40 364.23 L 296.48 362.20 L 295.28 348.67 L 301.62 338.89 L 315.01 337.08 L 326.39 320.11 L 336.72 305.94 L 326.77 299.51 L 331.87 283.84 L 325.77 259.13 L 331.56 252.04 L 327.30 229.20 L 316.36 214.81 L 319.83 201.68 L 328.53 203.62 L 333.62 195.59 L 327.35 179.68 L 330.63 175.74 L 344.58 176.59 L 364.85 157.74 L 375.97 154.86 L 376.24 145.93 L 381.21 123.11 L 396.71 110.58 L 413.72 110.06 L 415.87 104.43 L 437.01 106.69 L 458.26 93.05 L 468.78 87.01 L 481.86 74.00 L 491.43 75.65 L 498.51 82.76 L 493.27 91.85 L 475.92 96.38 L 469.07 109.88 L 458.61 117.63 L 450.77 127.66 L 447.46 146.94 L 439.97 162.73 L 453.91 164.54 L 457.38 176.96 L 463.34 182.90 L 465.47 193.77 L 462.26 203.77 L 463.21 209.41 L 469.86 211.66 L 476.29 221.08 L 511.02 218.48 L 526.71 221.92 L 545.72 245.16 L 556.64 242.28 L 576.09 243.72 L 591.49 240.64 L 601.04 245.28 L 596.17 259.83 L 590.15 268.90 L 588.03 288.27 L 593.46 306.21 L 601.14 314.24 L 602.07 320.29 L 588.38 333.73 L 598.18 339.68 L 605.36 349.13 L 613.60 376.06 L 608.50 379.39 L 603.24 363.46 L 595.73 354.89 L 586.80 364.20 L 534.18 363.60 L 534.51 380.50 L 550.34 383.29 L 549.42 393.64 L 544.02 390.84 L 528.81 395.29 L 528.67 414.91 L 540.66 424.77 L 544.88 440.23 L 544.25 451.95 L 532.11 526.00 L 518.59 511.64 L 510.52 511.00 L 527.94 483.51 L 507.26 470.87 L 491.05 473.19 L 481.30 468.52 L 466.42 475.66 L 446.31 472.27 L 430.40 443.96 L 417.89 437.00 L 409.27 424.25 L 391.31 411.46 L 384.11 414.02 Z" fill="#201813" stroke="#d52830" stroke-width="8" stroke-linejoin="round" fill-rule="evenodd"/>
  </g>
</svg>
