<?xml version="1.0" encoding="UTF-8"?>
<svg xmlns="http://www.w3.org/2000/svg" viewBox="0 0 900 600" role="img" aria-label="Ulke haritasi">
  <defs>
    <linearGradient id="paper" x1="0" y1="0" x2="1" y2="1">
      <stop offset="0%" stop-color="#fffdf8"/>
      <stop offset="100%" stop-color="#fff3d2"/>
    </linearGradient>
    <filter id="mapShadow" x="-10%" y="-10%" width="120%" height="120%">
      <feDropShadow dx="0" dy="12" stdDeviation="14" flood-color="#b58f42" flood-opacity="0.16"/>
    </filter>
  </defs>
  <rect x="22" y="22" width="856" height="556" rx="34" fill="url(#paper)" stroke="#e3d0a7" stroke-width="2"/>
  <g filter="url(#mapShadow)">
    <path d="M 569.81 244.43 L 560.18 266.21 L 555.84 284.06 L 554.03 317.30 L 551.64 329.41 L 555.94 342.94 L 563.63 355.04 L 568.58 374.28 L 585.05 392.75 L 590.84 406.90 L 600.54 419.11 L 626.88 425.69 L 637.14 436.07 L 658.89 429.14 L 677.81 426.63 L 696.38 422.17 L 712.00 417.92 L 727.77 407.80 L 733.68 393.33 L 735.72 372.49 L 740.01 365.24 L 756.81 358.74 L 783.04 352.99 L 805.00 353.85 L 820.05 351.75 L 826.00 357.01 L 825.16 368.96 L 811.83 383.70 L 805.93 398.81 L 810.50 403.13 L 806.79 413.85 L 800.57 433.21 L 794.28 426.84 L 789.09 427.25 L 784.37 427.57 L 775.49 442.55 L 770.98 439.61 L 767.98 440.76 L 768.18 444.41 L 745.23 444.13 L 722.08 444.18 L 722.06 458.14 L 710.85 458.20 L 720.09 466.48 L 729.26 472.21 L 732.02 477.58 L 736.03 479.09 L 735.40 487.54 L 703.56 487.61 L 691.62 507.83 L 695.14 512.47 L 692.27 518.28 L 691.66 525.51 L 663.59 498.80 L 650.79 490.75 L 630.54 484.28 L 616.68 486.08 L 596.76 495.41 L 584.26 497.86 L 566.74 491.32 L 548.15 486.60 L 524.97 475.22 L 506.37 471.75 L 478.29 460.21 L 457.54 448.36 L 451.27 441.73 L 437.39 440.25 L 412.02 432.40 L 401.69 421.08 L 375.03 407.00 L 362.61 391.36 L 356.69 379.27 L 364.97 376.85 L 362.42 369.78 L 368.12 363.34 L 368.24 354.76 L 359.87 343.63 L 357.64 333.75 L 349.32 321.24 L 327.46 296.58 L 302.52 277.20 L 290.45 261.74 L 269.16 251.61 L 264.60 245.55 L 268.38 230.22 L 255.73 224.43 L 241.09 212.38 L 234.91 195.07 L 221.56 193.05 L 207.16 179.99 L 195.54 167.92 L 194.45 160.17 L 181.11 141.46 L 172.33 122.47 L 172.70 112.94 L 154.76 103.10 L 146.48 104.18 L 132.33 97.35 L 128.35 107.42 L 132.46 119.32 L 134.87 137.95 L 143.38 148.17 L 161.78 165.26 L 165.87 171.10 L 169.65 172.87 L 172.92 181.39 L 177.33 181.05 L 182.31 197.05 L 189.84 203.36 L 195.12 212.14 L 210.71 224.77 L 218.94 247.84 L 226.30 258.70 L 233.20 270.33 L 234.56 283.41 L 246.52 284.23 L 256.47 295.50 L 265.47 306.58 L 264.86 311.02 L 254.42 320.13 L 250.03 320.01 L 243.49 304.93 L 227.26 290.79 L 209.37 278.80 L 196.68 272.50 L 197.50 254.35 L 193.74 240.91 L 181.92 233.22 L 164.86 222.15 L 161.59 225.34 L 155.33 218.88 L 140.03 212.88 L 125.41 198.47 L 127.22 196.60 L 137.44 198.01 L 146.64 188.74 L 147.57 177.55 L 128.47 159.86 L 113.91 152.99 L 104.77 137.50 L 95.57 121.24 L 84.08 101.41 L 74.00 79.09 L 102.19 77.18 L 133.69 74.49 L 131.37 79.34 L 168.83 91.40 L 225.42 108.88 L 274.75 108.70 L 294.42 108.69 L 294.47 98.45 L 337.44 98.46 L 346.49 107.26 L 359.17 115.10 L 373.91 126.01 L 382.13 138.96 L 388.31 152.60 L 401.13 160.09 L 421.72 167.53 L 437.35 147.94 L 457.63 147.46 L 475.11 157.35 L 487.56 174.33 L 496.14 188.87 L 510.77 203.01 L 516.23 220.37 L 523.17 232.03 L 542.52 239.72 L 560.13 245.18 L 569.81 244.43 Z" fill="#201813" stroke="#d52830" stroke-width="8" stroke-linejoin="round" fill-rule="evenodd"/>
  </g>
</svg>
