<?xml version="1.0" encoding="UTF-8"?>
<svg xmlns="http://www.w3.org/2000/svg" viewBox="0 0 900 600" role="img" aria-label="Ulke haritasi">
  <defs>
    <linearGradient id="paper" x1="0" y1="0" x2="1" y2="1">
      <stop offset="0%" stop-color="#fffdf8"/>
      <stop offset="100%" stop-color="#fff3d2"/>
    </linearGradient>
    <filter id="mapShadow" x="-10%" y="-10%" width="120%" height="120%">
      <feDropShadow dx="0" dy="12" stdDeviation="14" flood-color="#b58f42" flood-opacity="0.16"/>
    </filter>
  </defs>
  <rect x="22" y="22" width="856" height="556" rx="34" fill="url(#paper)" stroke="#e3d0a7" stroke-width="2"/>
  <g filter="url(#mapShadow)">
    <path d="M 650.65 263.62 L 713.27 278.26 L 687.48 283.62 L 709.42 296.20 L 675.35 304.23 L 659.18 306.07 L 667.67 292.02 L 641.98 284.06 L 610.89 290.85 L 601.07 305.52 L 581.99 314.38 L 560.49 309.54 L 534.35 310.54 L 512.10 299.95 L 500.11 305.24 L 487.69 306.06 L 484.75 319.23 L 447.02 316.03 L 441.72 327.18 L 422.50 327.11 L 409.28 341.35 L 389.25 363.54 L 358.17 391.71 L 365.46 398.55 L 358.50 406.48 L 338.64 406.14 L 325.64 424.91 L 326.87 451.50 L 339.66 461.64 L 333.04 485.18 L 316.38 498.90 L 307.56 510.44 L 294.13 498.15 L 254.60 521.31 L 227.91 526.00 L 200.22 515.80 L 193.06 494.28 L 186.73 448.08 L 205.17 435.20 L 258.03 418.39 L 297.55 397.73 L 334.20 369.83 L 382.30 331.18 L 415.83 316.11 L 470.85 291.00 L 514.78 282.24 L 547.71 283.30 L 578.20 266.72 L 614.70 267.60 L 650.65 263.62 Z M 581.75 130.12 L 537.04 138.31 L 501.71 133.66 L 515.53 128.49 L 503.43 122.10 L 544.92 118.09 L 552.87 125.60 L 581.75 130.12 Z M 452.18 93.13 L 518.09 108.05 L 467.71 115.93 L 456.59 130.66 L 439.02 134.44 L 429.49 151.03 L 405.37 151.81 L 362.31 139.60 L 380.47 132.49 L 350.46 126.69 L 311.46 109.79 L 295.89 94.11 L 350.46 86.95 L 361.43 93.95 L 389.94 93.68 L 397.55 86.83 L 426.94 86.14 L 452.18 93.13 Z M 596.24 79.00 L 635.47 86.03 L 605.79 96.81 L 547.73 99.17 L 488.69 95.83 L 485.12 90.31 L 456.40 89.96 L 434.49 80.77 L 496.31 75.18 L 525.38 80.00 L 545.62 74.00 L 596.24 79.00 Z" fill="#201813" stroke="#d52830" stroke-width="8" stroke-linejoin="round" fill-rule="evenodd"/>
  </g>
</svg>
