<?xml version="1.0" encoding="UTF-8"?>
<svg xmlns="http://www.w3.org/2000/svg" viewBox="0 0 900 600" role="img" aria-label="Ulke haritasi">
  <defs>
    <linearGradient id="paper" x1="0" y1="0" x2="1" y2="1">
      <stop offset="0%" stop-color="#fffdf8"/>
      <stop offset="100%" stop-color="#fff3d2"/>
    </linearGradient>
    <filter id="mapShadow" x="-10%" y="-10%" width="120%" height="120%">
      <feDropShadow dx="0" dy="12" stdDeviation="14" flood-color="#b58f42" flood-opacity="0.16"/>
    </filter>
  </defs>
  <rect x="22" y="22" width="856" height="556" rx="34" fill="url(#paper)" stroke="#e3d0a7" stroke-width="2"/>
  <g filter="url(#mapShadow)">
    <path d="M 584.62 507.02 L 578.00 519.69 L 565.29 526.00 L 540.51 511.81 L 538.37 501.67 L 489.38 476.86 L 445.06 449.83 L 426.00 434.60 L 415.76 414.18 L 419.82 407.06 L 398.89 374.63 L 374.53 329.04 L 351.18 279.83 L 341.07 268.57 L 333.30 250.37 L 314.10 234.24 L 296.49 224.24 L 304.49 213.21 L 292.51 189.64 L 300.20 172.33 L 319.90 156.73 L 322.83 167.01 L 315.78 172.90 L 316.45 181.95 L 326.67 179.99 L 336.65 182.66 L 347.02 195.14 L 360.99 184.97 L 365.67 168.30 L 380.81 146.80 L 410.53 137.05 L 437.47 111.18 L 445.16 95.11 L 441.72 76.34 L 448.30 74.00 L 464.74 85.70 L 472.63 97.37 L 484.07 103.74 L 498.62 129.65 L 517.02 132.74 L 530.64 126.21 L 539.57 130.48 L 554.40 128.36 L 573.32 139.93 L 557.38 165.08 L 564.76 165.67 L 577.13 178.80 L 554.86 177.64 L 551.55 181.36 L 531.29 186.11 L 503.03 202.93 L 501.24 214.46 L 494.93 223.06 L 497.40 236.42 L 482.46 243.56 L 482.49 254.00 L 475.97 258.51 L 486.25 280.77 L 499.98 295.80 L 494.76 306.42 L 511.16 307.85 L 520.51 321.03 L 542.31 321.67 L 562.59 307.11 L 560.94 344.64 L 572.18 347.48 L 586.12 343.22 L 607.49 383.00 L 602.17 391.36 L 600.96 408.73 L 600.47 429.76 L 590.82 442.11 L 595.25 451.27 L 589.58 459.58 L 600.21 480.35 L 584.62 507.02 Z" fill="#201813" stroke="#d52830" stroke-width="8" stroke-linejoin="round" fill-rule="evenodd"/>
  </g>
</svg>
