<?xml version="1.0" encoding="UTF-8"?>
<svg xmlns="http://www.w3.org/2000/svg" viewBox="0 0 900 600" role="img" aria-label="Ulke haritasi">
  <defs>
    <linearGradient id="paper" x1="0" y1="0" x2="1" y2="1">
      <stop offset="0%" stop-color="#fffdf8"/>
      <stop offset="100%" stop-color="#fff3d2"/>
    </linearGradient>
    <filter id="mapShadow" x="-10%" y="-10%" width="120%" height="120%">
      <feDropShadow dx="0" dy="12" stdDeviation="14" flood-color="#b58f42" flood-opacity="0.16"/>
    </filter>
  </defs>
  <rect x="22" y="22" width="856" height="556" rx="34" fill="url(#paper)" stroke="#e3d0a7" stroke-width="2"/>
  <g filter="url(#mapShadow)">
    <path d="M 481.71 490.64 L 481.72 517.18 L 494.45 517.18 L 501.61 517.50 L 497.67 522.31 L 487.48 526.00 L 481.64 525.62 L 474.60 524.66 L 465.97 521.09 L 453.52 519.37 L 438.57 512.73 L 426.43 506.34 L 410.06 493.03 L 419.86 495.52 L 436.55 503.46 L 452.31 507.73 L 458.44 502.28 L 462.30 494.14 L 473.25 489.23 L 481.71 490.64 Z M 486.63 120.52 L 491.29 136.91 L 499.86 135.28 L 501.31 138.25 L 497.23 150.60 L 484.28 156.46 L 484.66 176.27 L 482.18 180.09 L 485.73 184.76 L 477.35 192.15 L 469.56 203.30 L 465.31 214.10 L 466.44 225.61 L 459.12 237.83 L 464.59 258.35 L 467.68 260.52 L 467.65 271.45 L 460.86 283.05 L 461.14 292.98 L 452.14 300.74 L 452.18 311.66 L 455.79 323.26 L 448.68 327.57 L 445.50 338.18 L 442.71 350.35 L 444.72 364.84 L 439.94 367.26 L 442.71 380.97 L 448.08 385.47 L 444.16 390.46 L 449.67 392.84 L 450.94 397.32 L 445.76 399.57 L 447.03 406.54 L 442.69 422.28 L 436.39 432.43 L 437.77 438.44 L 434.00 445.98 L 424.88 451.20 L 425.92 463.81 L 430.11 468.12 L 438.02 467.35 L 437.79 476.25 L 442.72 483.18 L 471.44 484.77 L 482.45 486.63 L 471.88 486.54 L 466.16 489.47 L 455.43 493.76 L 453.52 504.86 L 448.48 505.14 L 435.08 501.27 L 421.47 493.00 L 421.47 493.00 L 406.68 486.20 L 402.96 478.67 L 406.33 471.71 L 400.35 463.80 L 398.83 443.54 L 403.88 432.11 L 416.43 422.93 L 398.39 419.46 L 409.71 408.96 L 413.76 389.22 L 426.96 393.40 L 433.18 368.78 L 425.20 365.62 L 421.49 380.46 L 413.99 378.78 L 417.72 361.79 L 421.77 339.77 L 427.24 331.65 L 423.81 320.05 L 422.83 306.66 L 427.84 306.27 L 435.13 287.08 L 443.35 268.07 L 448.38 250.36 L 445.64 232.55 L 449.19 222.75 L 447.77 208.08 L 454.72 193.57 L 456.86 170.57 L 460.67 145.89 L 464.39 119.32 L 463.52 99.87 L 461.05 83.13 L 467.16 80.09 L 470.34 74.00 L 476.17 82.08 L 477.76 90.66 L 483.99 95.69 L 480.25 107.19 L 486.63 120.52 Z" fill="#201813" stroke="#d52830" stroke-width="8" stroke-linejoin="round" fill-rule="evenodd"/>
  </g>
</svg>
