<?xml version="1.0" encoding="UTF-8"?>
<svg xmlns="http://www.w3.org/2000/svg" viewBox="0 0 900 600" role="img" aria-label="Ulke haritasi">
  <defs>
    <linearGradient id="paper" x1="0" y1="0" x2="1" y2="1">
      <stop offset="0%" stop-color="#fffdf8"/>
      <stop offset="100%" stop-color="#fff3d2"/>
    </linearGradient>
    <filter id="mapShadow" x="-10%" y="-10%" width="120%" height="120%">
      <feDropShadow dx="0" dy="12" stdDeviation="14" flood-color="#b58f42" flood-opacity="0.16"/>
    </filter>
  </defs>
  <rect x="22" y="22" width="856" height="556" rx="34" fill="url(#paper)" stroke="#e3d0a7" stroke-width="2"/>
  <g filter="url(#mapShadow)">
    <path d="M 382.25 526.00 L 378.54 513.80 L 369.92 505.19 L 367.72 493.79 L 352.95 483.55 L 337.72 459.58 L 329.66 436.29 L 309.89 416.62 L 297.14 411.92 L 278.21 384.68 L 274.90 364.82 L 276.12 347.87 L 259.73 316.18 L 246.32 305.02 L 230.88 299.11 L 221.48 282.73 L 223.04 276.27 L 215.10 261.45 L 206.75 255.07 L 195.59 233.81 L 178.19 210.76 L 163.61 191.13 L 149.38 191.26 L 153.82 175.58 L 155.09 165.57 L 158.63 154.16 L 190.44 158.71 L 202.80 149.91 L 209.64 139.62 L 231.45 135.66 L 236.15 126.09 L 245.61 121.24 L 217.12 92.65 L 274.36 78.31 L 279.81 74.00 L 314.24 81.75 L 356.83 101.75 L 437.42 159.24 L 490.57 161.52 L 516.04 164.28 L 523.16 177.90 L 543.37 177.16 L 554.56 201.81 L 568.62 208.34 L 573.52 218.38 L 593.00 230.39 L 594.73 242.19 L 591.88 251.71 L 595.50 261.31 L 603.72 269.32 L 607.53 278.69 L 611.80 285.70 L 620.44 291.37 L 628.37 289.34 L 633.79 300.26 L 634.89 306.87 L 645.83 335.82 L 731.76 350.24 L 737.52 344.19 L 750.62 364.44 L 731.56 421.61 L 645.81 450.19 L 563.40 461.15 L 536.72 474.01 L 516.23 504.02 L 502.89 508.79 L 495.75 499.26 L 484.79 500.69 L 457.16 497.83 L 451.92 494.97 L 418.93 495.63 L 411.18 498.21 L 399.44 490.78 L 391.87 504.83 L 394.80 516.88 L 382.25 526.00 Z" fill="#201813" stroke="#d52830" stroke-width="8" stroke-linejoin="round" fill-rule="evenodd"/>
  </g>
</svg>
