<?xml version="1.0" encoding="UTF-8"?>
<svg xmlns="http://www.w3.org/2000/svg" viewBox="0 0 900 600" role="img" aria-label="Ulke haritasi">
  <defs>
    <linearGradient id="paper" x1="0" y1="0" x2="1" y2="1">
      <stop offset="0%" stop-color="#fffdf8"/>
      <stop offset="100%" stop-color="#fff3d2"/>
    </linearGradient>
    <filter id="mapShadow" x="-10%" y="-10%" width="120%" height="120%">
      <feDropShadow dx="0" dy="12" stdDeviation="14" flood-color="#b58f42" flood-opacity="0.16"/>
    </filter>
  </defs>
  <rect x="22" y="22" width="856" height="556" rx="34" fill="url(#paper)" stroke="#e3d0a7" stroke-width="2"/>
  <g filter="url(#mapShadow)">
    <path d="M 483.84 326.64 L 456.28 312.55 L 430.03 313.12 L 434.53 289.01 L 407.50 289.19 L 405.07 322.95 L 388.51 367.78 L 378.53 394.89 L 380.63 417.11 L 400.63 418.07 L 413.08 446.08 L 418.60 472.65 L 435.72 490.23 L 454.32 493.80 L 470.22 509.72 L 460.18 522.33 L 439.93 526.00 L 437.51 510.24 L 412.47 496.80 L 407.13 502.27 L 395.00 490.49 L 389.75 475.29 L 373.44 457.97 L 358.58 443.41 L 353.54 461.45 L 347.72 444.40 L 351.07 425.25 L 360.10 395.81 L 374.98 364.27 L 391.83 335.66 L 379.83 307.67 L 380.31 293.41 L 376.81 276.28 L 356.34 251.89 L 349.01 236.49 L 359.61 230.82 L 370.84 204.14 L 358.27 183.88 L 338.79 161.47 L 323.96 134.54 L 336.91 128.96 L 350.90 95.78 L 372.57 94.41 L 390.48 81.10 L 408.06 74.00 L 421.35 83.47 L 423.11 101.92 L 443.85 103.32 L 436.29 135.66 L 437.02 163.17 L 469.37 144.86 L 478.56 150.27 L 496.54 149.39 L 502.72 138.71 L 525.93 140.82 L 549.28 165.74 L 551.19 196.04 L 576.04 222.79 L 574.67 248.76 L 564.68 262.60 L 535.91 258.19 L 496.22 264.06 L 476.57 289.58 L 483.84 326.64 Z" fill="#201813" stroke="#d52830" stroke-width="8" stroke-linejoin="round" fill-rule="evenodd"/>
  </g>
</svg>
