<?xml version="1.0" encoding="UTF-8"?>
<svg xmlns="http://www.w3.org/2000/svg" viewBox="0 0 900 600" role="img" aria-label="Ulke haritasi">
  <defs>
    <linearGradient id="paper" x1="0" y1="0" x2="1" y2="1">
      <stop offset="0%" stop-color="#fffdf8"/>
      <stop offset="100%" stop-color="#fff3d2"/>
    </linearGradient>
    <filter id="mapShadow" x="-10%" y="-10%" width="120%" height="120%">
      <feDropShadow dx="0" dy="12" stdDeviation="14" flood-color="#b58f42" flood-opacity="0.16"/>
    </filter>
  </defs>
  <rect x="22" y="22" width="856" height="556" rx="34" fill="url(#paper)" stroke="#e3d0a7" stroke-width="2"/>
  <g filter="url(#mapShadow)">
    <path d="M 509.94 205.60 L 567.47 221.11 L 614.19 214.93 L 648.71 218.50 L 696.06 197.57 L 738.79 195.66 L 777.42 215.35 L 784.24 229.47 L 780.38 248.98 L 810.20 258.95 L 826.00 270.66 L 798.54 282.09 L 811.06 328.08 L 803.21 340.50 L 825.15 372.63 L 805.93 379.41 L 791.84 369.19 L 745.19 364.02 L 727.97 370.25 L 682.35 376.49 L 660.74 375.81 L 614.59 390.86 L 581.59 390.98 L 560.25 383.43 L 516.10 394.59 L 502.97 386.79 L 500.80 409.16 L 490.06 417.95 L 479.32 426.73 L 464.57 408.55 L 479.76 393.48 L 455.30 396.90 L 421.76 387.67 L 394.18 410.75 L 333.31 415.26 L 300.85 393.74 L 257.61 392.39 L 248.37 409.03 L 220.65 413.78 L 181.87 392.43 L 138.08 393.15 L 114.32 353.27 L 85.02 331.02 L 104.53 299.83 L 79.11 280.67 L 123.60 242.31 L 185.36 240.70 L 202.20 210.23 L 278.64 215.53 L 326.85 189.52 L 373.58 178.18 L 439.93 177.33 L 509.94 205.60 Z M 120.08 231.46 L 86.62 253.06 L 74.00 234.38 L 74.55 226.10 L 84.08 221.60 L 96.49 196.50 L 76.96 185.88 L 117.81 173.27 L 152.34 178.65 L 157.11 194.07 L 192.11 207.02 L 184.81 216.84 L 137.19 219.05 L 120.08 231.46 Z" fill="#201813" stroke="#d52830" stroke-width="8" stroke-linejoin="round" fill-rule="evenodd"/>
  </g>
</svg>
