<?xml version="1.0" encoding="UTF-8"?>
<svg xmlns="http://www.w3.org/2000/svg" viewBox="0 0 900 600" role="img" aria-label="Ulke haritasi">
  <defs>
    <linearGradient id="paper" x1="0" y1="0" x2="1" y2="1">
      <stop offset="0%" stop-color="#fffdf8"/>
      <stop offset="100%" stop-color="#fff3d2"/>
    </linearGradient>
    <filter id="mapShadow" x="-10%" y="-10%" width="120%" height="120%">
      <feDropShadow dx="0" dy="12" stdDeviation="14" flood-color="#b58f42" flood-opacity="0.16"/>
    </filter>
  </defs>
  <rect x="22" y="22" width="856" height="556" rx="34" fill="url(#paper)" stroke="#e3d0a7" stroke-width="2"/>
  <g filter="url(#mapShadow)">
    <path d="M 479.37 143.15 L 494.97 144.84 L 505.53 135.33 L 518.22 137.43 L 561.56 133.40 L 588.26 157.06 L 577.82 165.52 L 581.28 178.49 L 614.61 180.51 L 629.47 198.63 L 628.56 206.86 L 681.63 221.55 L 713.70 214.93 L 739.49 234.50 L 763.91 234.05 L 825.51 247.65 L 826.00 259.92 L 809.03 281.80 L 818.26 304.84 L 811.69 318.78 L 771.25 321.84 L 749.71 333.51 L 748.39 352.07 L 715.02 355.41 L 687.22 368.93 L 648.10 371.14 L 612.11 386.72 L 614.55 412.71 L 634.99 422.79 L 677.62 420.28 L 669.46 435.19 L 623.71 442.43 L 566.98 466.60 L 543.74 458.10 L 552.96 438.47 L 507.29 426.24 L 514.67 418.22 L 554.68 404.33 L 542.58 394.76 L 477.62 384.20 L 474.74 368.62 L 436.02 373.76 L 420.51 396.78 L 388.16 427.66 L 369.20 420.49 L 349.56 427.22 L 330.92 419.52 L 341.44 414.98 L 348.74 400.64 L 360.18 387.32 L 357.22 379.83 L 365.96 376.50 L 370.08 382.28 L 394.70 383.51 L 405.76 380.42 L 397.97 376.18 L 400.93 369.95 L 386.33 359.33 L 380.29 341.86 L 365.07 335.02 L 368.07 320.86 L 349.19 309.62 L 332.00 308.05 L 301.20 295.03 L 273.43 299.17 L 263.46 305.33 L 245.83 305.32 L 235.32 315.09 L 204.47 319.11 L 190.20 325.52 L 170.80 315.31 L 144.01 315.16 L 118.16 310.53 L 100.11 319.48 L 97.20 308.28 L 74.00 296.91 L 82.16 280.06 L 93.75 269.18 L 102.87 271.62 L 92.09 252.84 L 130.03 218.08 L 150.77 213.22 L 155.25 201.50 L 134.24 165.01 L 154.21 163.38 L 177.11 152.06 L 209.49 151.13 L 251.70 154.41 L 298.34 164.44 L 331.25 165.27 L 346.97 171.31 L 362.65 164.03 L 373.60 173.80 L 411.31 171.80 L 427.93 175.84 L 430.62 154.80 L 443.50 145.63 L 479.37 143.15 Z" fill="#201813" stroke="#d52830" stroke-width="8" stroke-linejoin="round" fill-rule="evenodd"/>
  </g>
</svg>
