<?xml version="1.0" encoding="UTF-8"?>
<svg xmlns="http://www.w3.org/2000/svg" viewBox="0 0 900 600" role="img" aria-label="Ulke haritasi">
  <defs>
    <linearGradient id="paper" x1="0" y1="0" x2="1" y2="1">
      <stop offset="0%" stop-color="#fffdf8"/>
      <stop offset="100%" stop-color="#fff3d2"/>
    </linearGradient>
    <filter id="mapShadow" x="-10%" y="-10%" width="120%" height="120%">
      <feDropShadow dx="0" dy="12" stdDeviation="14" flood-color="#b58f42" flood-opacity="0.16"/>
    </filter>
  </defs>
  <rect x="22" y="22" width="856" height="556" rx="34" fill="url(#paper)" stroke="#e3d0a7" stroke-width="2"/>
  <g filter="url(#mapShadow)">
    <path d="M 468.81 313.83 L 477.22 329.15 L 503.59 314.12 L 514.31 329.78 L 514.34 345.39 L 500.55 362.56 L 476.31 389.88 L 457.35 404.79 L 471.02 422.63 L 442.42 423.09 L 410.69 437.06 L 400.76 461.33 L 379.68 498.85 L 350.57 515.42 L 332.06 526.00 L 297.92 525.21 L 273.90 512.98 L 233.61 510.38 L 227.39 496.76 L 247.31 469.26 L 293.93 432.67 L 317.87 425.69 L 344.50 411.58 L 376.28 392.17 L 398.53 372.92 L 415.02 345.29 L 429.07 335.91 L 434.58 315.21 L 460.58 298.07 L 468.81 313.83 Z M 527.82 137.24 L 554.69 176.28 L 555.47 150.96 L 572.20 161.07 L 577.75 189.12 L 607.58 201.20 L 632.63 204.16 L 653.83 190.02 L 672.61 194.31 L 663.63 227.21 L 652.35 248.85 L 624.04 248.08 L 614.14 259.35 L 617.59 275.31 L 612.13 282.20 L 598.12 302.18 L 579.75 327.57 L 551.09 342.36 L 544.73 332.63 L 529.27 327.28 L 550.65 296.78 L 538.51 276.38 L 498.61 261.55 L 499.65 248.12 L 526.44 235.18 L 532.70 206.63 L 530.97 182.66 L 515.96 157.81 L 516.96 151.28 L 499.23 135.97 L 470.06 103.16 L 454.56 76.91 L 468.31 74.00 L 488.49 94.60 L 517.34 104.21 L 527.82 137.24 Z" fill="#201813" stroke="#d52830" stroke-width="8" stroke-linejoin="round" fill-rule="evenodd"/>
  </g>
</svg>
