<?xml version="1.0" encoding="UTF-8"?>
<svg xmlns="http://www.w3.org/2000/svg" viewBox="0 0 900 600" role="img" aria-label="Ulke haritasi">
  <defs>
    <linearGradient id="paper" x1="0" y1="0" x2="1" y2="1">
      <stop offset="0%" stop-color="#fffdf8"/>
      <stop offset="100%" stop-color="#fff3d2"/>
    </linearGradient>
    <filter id="mapShadow" x="-10%" y="-10%" width="120%" height="120%">
      <feDropShadow dx="0" dy="12" stdDeviation="14" flood-color="#b58f42" flood-opacity="0.16"/>
    </filter>
  </defs>
  <rect x="22" y="22" width="856" height="556" rx="34" fill="url(#paper)" stroke="#e3d0a7" stroke-width="2"/>
  <g filter="url(#mapShadow)">
    <path d="M 471.13 474.63 L 506.91 496.68 L 557.84 492.95 L 606.54 497.60 L 604.96 508.98 L 640.62 501.13 L 632.44 520.44 L 538.21 526.00 L 538.86 515.20 L 459.02 502.44 L 471.13 474.63 Z M 661.19 91.33 L 640.93 132.29 L 625.37 139.62 L 585.50 137.76 L 551.35 131.58 L 472.10 148.59 L 517.46 185.38 L 484.22 196.04 L 447.77 196.11 L 413.15 162.41 L 400.87 176.77 L 415.49 215.85 L 448.23 246.56 L 423.56 260.90 L 460.01 291.06 L 492.40 310.04 L 493.38 347.02 L 432.85 329.67 L 452.15 363.05 L 410.60 369.92 L 435.41 427.67 L 391.95 428.49 L 338.29 400.02 L 313.74 347.67 L 302.29 304.13 L 276.77 274.05 L 243.24 236.73 L 238.81 218.10 L 269.24 186.36 L 273.17 165.09 L 294.44 155.60 L 295.75 138.41 L 338.56 132.61 L 363.50 118.31 L 398.97 119.57 L 409.73 108.17 L 422.21 106.00 L 470.61 107.89 L 523.00 89.90 L 569.11 112.77 L 628.59 106.59 L 629.31 74.00 L 661.19 91.33 Z" fill="#201813" stroke="#d52830" stroke-width="8" stroke-linejoin="round" fill-rule="evenodd"/>
  </g>
</svg>
